<?xml version="1.0" encoding="UTF-8"?>
<svg width="465.368px" height="44.9345123px" viewBox="0 0 465.368 44.9345123" version="1.1"
    xmlns="http://www.w3.org/2000/svg" xmlns:xlink="http://www.w3.org/1999/xlink">
    <title>发射机智能监测系统</title>
    <defs>
        <linearGradient x1="50%" y1="0%" x2="50%" y2="100%" id="linearGradient-1">
            <stop stop-color="#FFFFFF" offset="0%"></stop>
            <stop stop-color="#FFFFFF" offset="100%"></stop>
        </linearGradient>
        <linearGradient x1="3.03198761%" y1="49.7245461%" x2="102.997669%" y2="50.2644611%"
            id="linearGradient-2">
            <stop stop-color="#D1D1D1" offset="0%"></stop>
            <stop stop-color="#EAEAEA" offset="12.4043925%"></stop>
            <stop stop-color="#E6E6E6" offset="35.2655157%"></stop>
            <stop stop-color="#FFFFFF" offset="56.7908654%"></stop>
            <stop stop-color="#DEDEDE" offset="100%"></stop>
        </linearGradient>
        <path
            d="M207.608,18.032 L206.968,19.664 L223.32,19.664 L223.32,22.576 L223.224,22.576 L223.32,22.608 C222.061333,25.6373333 220.237333,28.0373333 217.848,29.808 C218.744,30.1493333 219.704,30.4053333 220.728,30.576 C221.752,30.7466667 222.861333,30.864 224.056,30.928 L224.056,34 C222.114667,34 220.328,33.8453333 218.696,33.536 C217.064,33.2266667 215.544,32.6986667 214.136,31.952 C212.856,32.5066667 211.469333,32.9653333 209.976,33.328 C208.482667,33.6906667 206.893333,33.9573333 205.208,34.128 L205.208,30.768 C206.232,30.6186667 207.197333,30.4426667 208.104,30.24 C209.010667,30.0373333 209.869333,29.7973333 210.68,29.52 C209.058667,28.0266667 207.522667,26.096 206.072,23.728 L210.456,23.728 C211.586667,25.4133333 212.834667,26.7786667 214.2,27.824 C215.181333,27.2053333 216.056,26.4693333 216.824,25.616 C217.592,24.7626667 218.274667,23.76 218.872,22.608 L218.904,22.576 L205.816,22.608 L201.4,33.904 L197.08,34.096 L203.384,18.032 L201.304,18.032 L197.336,18.032 L199.672,10.992 L203.64,10.992 L202.36,14.896 L204.6,14.896 L206.136,10.992 L210.456,10.832 L208.856,14.896 L218.968,14.896 L217.848,11.76 L222.072,11.76 L224.28,18.032 L222.296,18.032 L220.056,18.032 L207.608,18.032 Z M242.296,13.104 L242.296,30.64 C242.296,31.1306667 242.2,31.6 242.008,32.048 C241.858667,32.4106667 241.602667,32.784 241.24,33.168 C240.92,33.488 240.546667,33.7333333 240.12,33.904 C239.736,34.0746667 239.277333,34.16 238.744,34.16 L234.904,34.16 L236.152,31.504 L237.144,31.504 C237.421333,31.504 237.677333,31.4186667 237.912,31.248 C238.082667,31.0133333 238.168,30.768 238.168,30.512 L238.168,29.296 L235.608,29.296 L232.152,34.16 L227.448,34.16 L230.904,29.296 L227.256,29.296 L227.256,26.256 L228.792,26.256 L228.792,13.104 L230.648,13.104 L231.544,11.248 L236.024,11.248 L235.16,13.104 L242.296,13.104 Z M248.28,31.408 C248.578667,31.408 248.802667,31.312 248.952,31.12 C249.165333,30.928 249.272,30.704 249.272,30.448 L249.272,27.792 L246.168,27.792 L243.608,18.128 L247.512,18.128 L249.272,24.88 L249.272,15.728 L243.32,15.728 L243.32,12.88 L249.272,12.88 L249.272,10.8 L253.368,10.8 L253.368,12.88 L255.512,12.88 L255.512,15.728 L253.368,15.728 L253.368,30.672 C253.368,31.1413333 253.282667,31.6 253.112,32.048 C253.026667,32.2613333 252.92,32.4586667 252.792,32.64 C252.664,32.8213333 252.514667,32.9973333 252.344,33.168 C252.024,33.488 251.64,33.7333333 251.192,33.904 C250.829333,34.0746667 250.370667,34.16 249.816,34.16 L245.752,34.16 L247,31.408 L248.28,31.408 Z M232.888,22.064 L238.168,22.064 L238.168,20.496 L232.888,20.496 L232.888,22.064 Z M238.168,16.144 L232.888,16.144 L232.888,17.68 L238.168,17.68 L238.168,16.144 Z M238.168,26.256 L238.168,24.912 L232.888,24.912 L232.888,26.256 L238.168,26.256 Z M258.072,12.816 L262.36,12.816 L262.36,10.96 L265.976,10.96 L265.976,12.816 L270.264,12.816 L270.264,15.952 L265.976,15.952 L265.976,33.872 L262.36,33.872 L262.36,15.952 L258.072,15.952 L258.072,12.816 Z M261.112,33.744 L258.2,33.744 L258.744,17.584 L261.624,17.584 L261.112,33.744 Z M266.584,17.584 L269.496,17.584 L270.008,33.744 L267.096,33.744 L266.584,17.584 Z M282.552,33.968 C281.890667,33.968 281.325333,33.7386667 280.856,33.28 C280.386667,32.8213333 280.152,32.2506667 280.152,31.568 L280.152,14.32 L275.128,14.32 L275.128,30.544 L274.328,33.968 L270.36,33.968 L271.16,30.672 L271.16,11.184 L273.144,11.184 L275.128,11.184 L284.12,11.184 L284.12,30.16 C284.12,30.352 284.189333,30.512 284.328,30.64 C284.466667,30.768 284.632,30.832 284.824,30.832 L286.136,30.832 L285.24,33.968 L284.12,33.968 L282.552,33.968 Z M287.896,34 L287.896,31.216 L287.896,29.936 L287.896,27.76 L287.896,26.48 L287.896,23.952 L287.896,23.632 L310.584,23.632 L315.224,23.632 L315.224,26.48 L315.224,27.76 L315.224,29.808 L315.224,29.936 C315.202667,30.512 315.101333,31.0453333 314.92,31.536 C314.738667,32.0266667 314.488,32.4533333 314.168,32.816 C313.848,33.1786667 313.474667,33.4666667 313.048,33.68 C312.621333,33.8933333 312.173333,34 311.704,34 L292.44,34 L287.896,34 Z M292.44,27.76 L310.584,27.76 L310.584,26.48 L292.44,26.48 L292.44,27.76 Z M292.44,31.216 L309.56,31.216 C309.858667,31.216 310.104,31.0986667 310.296,30.864 C310.488,30.6293333 310.584,30.3413333 310.584,30 L310.584,29.936 L292.44,29.936 L292.44,31.216 Z M302.904,10.96 L315.608,10.96 L315.608,11.248 L315.608,14.128 L315.608,19.312 C315.608,19.8026667 315.517333,20.2613333 315.336,20.688 C315.154667,21.1146667 314.904,21.488 314.584,21.808 C314.264,22.128 313.890667,22.3786667 313.464,22.56 C313.037333,22.7413333 312.578667,22.832 312.088,22.832 L302.904,22.832 L302.904,21.584 L302.904,19.664 L302.904,14.128 L302.904,11.248 L302.904,10.96 Z M311.16,14.128 L307.352,14.128 L307.352,19.664 L310.168,19.664 C310.445333,19.664 310.68,19.568 310.872,19.376 C311.064,19.184 311.16,18.9493333 311.16,18.672 L311.16,14.128 Z M287.576,22.832 L291.352,19.568 L287.512,19.568 L287.512,16.4 L293.016,16.4 L293.016,15.248 L291.928,15.248 L289.56,15.248 L287.512,15.248 L289.016,10.96 L293.432,10.96 L293.048,12.08 L301.432,12.08 L301.432,15.248 L297.464,15.248 L297.464,16.4 L301.624,16.4 L301.624,19.568 L299.256,19.568 L302.04,22.832 L297.592,22.832 L295.544,20.4 L292.728,22.832 L287.576,22.832 Z M328.6,32.016 C328.728,32.016 328.813333,31.984 328.856,31.92 C328.856,31.8986667 328.888,31.856 328.952,31.792 L329.016,31.632 L329.016,29.936 L322.264,29.936 L322.264,31.024 L321.56,34.128 L318.072,34.128 L318.68,31.024 L318.68,18.736 L330.072,18.736 C330.818667,18.736 331.464,19.008 332.008,19.552 C332.552,20.096 332.824,20.7413333 332.824,21.488 L332.824,31.536 C332.824,32.048 332.76,32.4533333 332.632,32.752 C332.504,33.0506667 332.312,33.328 332.056,33.584 C331.864,33.7973333 331.650667,33.9466667 331.416,34.032 C331.16,34.096 330.925333,34.128 330.712,34.128 L327.192,34.128 L328.088,32.016 L328.6,32.016 Z M346.488,18.928 L345.048,21.776 L337.176,21.776 C336.749333,21.776 336.365333,21.7013333 336.024,21.552 C335.618667,21.4026667 335.288,21.1893333 335.032,20.912 C334.754667,20.656 334.541333,20.336 334.392,19.952 C334.221333,19.5466667 334.136,19.152 334.136,18.768 L334.136,11.024 L338.296,11.024 L338.296,15.376 L341.432,11.376 L345.592,11.376 L340.376,17.936 L338.296,17.936 C338.296,18.192 338.381333,18.4373333 338.552,18.672 C338.786667,18.8426667 339.032,18.928 339.288,18.928 L346.488,18.928 Z M346.488,30.864 L345.048,33.68 L337.176,33.68 C336.728,33.68 336.344,33.6053333 336.024,33.456 C335.832,33.392 335.656,33.3013333 335.496,33.184 C335.336,33.0666667 335.181333,32.944 335.032,32.816 C334.754667,32.5813333 334.541333,32.2613333 334.392,31.856 C334.221333,31.472 334.136,31.0773333 334.136,30.672 L334.136,22.992 L338.296,22.992 L338.296,27.344 L341.432,23.28 L345.592,23.28 L340.376,29.872 L338.296,29.872 C338.296,30.1706667 338.381333,30.4053333 338.552,30.576 C338.786667,30.768 339.032,30.864 339.288,30.864 L346.488,30.864 Z M321.528,10.8 L325.656,10.8 L323.768,14.8 L328.312,14.8 L327.608,13.008 L331.544,13.008 L333.304,17.52 L330.968,17.52 L330.968,17.552 L318.584,17.552 L321.528,10.8 Z M329.016,27.472 L329.016,25.712 L322.264,25.712 L322.264,27.472 L329.016,27.472 Z M322.264,21.552 L322.264,23.248 L329.016,23.248 L329.016,22.576 C329.016,22.2986667 328.914667,22.0586667 328.712,21.856 C328.509333,21.6533333 328.269333,21.552 327.992,21.552 L322.264,21.552 Z M377.048,34 L348.92,34 L348.92,31.184 L349.88,31.184 L349.88,23.952 L373.08,23.952 C373.485333,23.952 373.874667,24.032 374.248,24.192 C374.621333,24.352 374.941333,24.5653333 375.208,24.832 C375.474667,25.0986667 375.688,25.4186667 375.848,25.792 C376.008,26.1653333 376.088,26.5546667 376.088,26.96 L376.088,31.184 L377.048,31.184 L377.048,34 Z M371.672,27.76 C371.672,27.4826667 371.576,27.248 371.384,27.056 C371.192,26.864 370.946667,26.768 370.648,26.768 L368.856,26.768 L368.856,31.184 L371.672,31.184 L371.672,27.76 Z M364.44,26.768 L361.56,26.768 L361.56,31.184 L364.44,31.184 L364.44,26.768 Z M354.328,31.184 L357.112,31.184 L357.112,26.768 L354.328,26.768 L354.328,31.184 Z M376.952,16.496 L374.072,16.496 L376.28,23.024 L371.896,23.024 L369.688,16.496 L368.248,16.496 L366.648,23.024 L361.848,23.024 L364.76,11.056 L369.56,11.056 L368.984,13.424 L376.952,13.424 L376.952,16.496 Z M350.488,22 L350.488,12.176 L354.776,12.176 L354.776,22 L350.488,22 Z M356.568,23.024 L356.568,10.96 L360.888,10.96 L360.888,23.024 L356.568,23.024 Z M398.36,11.952 L401.368,11.952 L401.368,30.768 L402.168,30.768 C402.445333,30.768 402.68,30.672 402.872,30.48 C403.064,30.288 403.16,30.0426667 403.16,29.744 L403.16,10.864 L406.424,10.864 L406.424,30.384 C406.424,30.8746667 406.333333,31.328 406.152,31.744 C405.970667,32.16 405.72,32.528 405.4,32.848 C405.08,33.168 404.706667,33.4186667 404.28,33.6 C403.853333,33.7813333 403.405333,33.872 402.936,33.872 L399.864,33.872 L401.176,30.928 L398.36,30.928 L398.36,11.952 Z M378.456,34.064 L380.984,24.912 L385.08,24.912 L382.552,34.064 L378.456,34.064 Z M378.456,16.24 L380.312,16.24 L378.456,10.96 L382.552,10.96 L385.08,18.128 L383.224,18.128 L385.08,23.408 L380.984,23.408 L378.456,16.24 Z M395,11.248 C395.661333,11.248 396.226667,11.4826667 396.696,11.952 C397.165333,12.4213333 397.4,12.9866667 397.4,13.648 L397.4,26.608 L394.04,26.608 L394.04,14.096 C394.04,13.904 393.976,13.7386667 393.848,13.6 C393.72,13.4613333 393.56,13.392 393.368,13.392 L388.952,13.392 L388.952,26.608 L385.592,26.608 L385.592,11.248 L395,11.248 Z M391.832,29.2 L389.784,33.84 L386.296,33.84 L389.912,25.2 L389.912,15.792 L393.144,15.792 L393.144,26.256 L392.44,27.856 L394.744,27.856 L397.496,33.744 L393.944,33.744 L391.832,29.2 Z M412.088,34 L407.928,34 L410.296,27.92 L414.488,27.92 L412.088,34 Z M433.56,27.92 L435.928,34 L431.736,34 L429.368,27.92 L433.56,27.92 Z M407.832,12.464 L435.928,10.928 L435.928,14.544 L423.928,15.216 L419.608,18.032 L420.952,18.032 L422.264,18.032 L427.736,18.032 L419.608,23.312 L429.048,23.312 L427.32,20.816 L431.928,20.816 L435.928,26.576 L433.976,26.576 L431.32,26.576 L425.304,26.576 L425.304,30.512 C425.304,31.0026667 425.208,31.4613333 425.016,31.888 C424.824,32.3146667 424.568,32.688 424.248,33.008 C423.928,33.328 423.554667,33.5786667 423.128,33.76 C422.701333,33.9413333 422.253333,34.032 421.784,34.032 L415.352,34.032 L417.112,30.768 L419.224,30.768 C419.501333,30.768 419.736,30.672 419.928,30.48 C420.12,30.288 420.216,30.0426667 420.216,29.744 L420.216,26.576 L414.584,26.576 L407.928,26.576 L407.832,26.576 L415.96,21.296 L414.584,21.296 L409.368,21.296 L407.832,21.296 L416.536,15.6 L407.832,16.08 L407.832,12.464 Z M465.368,16.4 L454.136,16.4 L452.408,20.592 L460.312,20.592 L459.544,18.32 L463.256,18.32 L465.272,24.112 L461.528,24.112 L461.368,23.664 L460.856,23.664 L460.856,29.84 C460.856,30.1386667 460.952,30.384 461.144,30.576 C461.336,30.768 461.581333,30.864 461.88,30.864 L465.016,30.864 L463.608,34.032 L459.704,34.032 C458.893333,34.032 458.210667,33.7493333 457.656,33.184 C457.101333,32.6186667 456.824,31.9306667 456.824,31.12 L456.824,23.664 L453.848,23.664 L451.864,34.032 L447.64,34.032 L449.624,23.664 L446.36,23.664 L449.464,16.4 L447.416,16.4 L447.416,13.232 L454.392,13.232 L453.336,10.896 L458.392,10.896 L459.416,13.232 L465.368,13.232 L465.368,16.4 Z M437.272,29.584 L441.048,21.648 L437.272,21.648 L442.008,11.376 L446.968,11.376 L443.288,18.768 L444.024,18.768 L446.488,18.768 L442.904,26.672 L446.488,26.672 L446.488,29.584 L437.272,29.584 Z M437.272,31.12 L446.488,31.12 L446.488,34.032 L437.272,34.032 L437.272,31.12 Z"
            id="path-3"></path>
        <linearGradient x1="50.0000503%" y1="-2.77555756e-14%" x2="50%" y2="105.132649%"
            id="linearGradient-4">
            <stop stop-color="#1E1E3C" stop-opacity="0" offset="0%"></stop>
            <stop stop-color="#A9A9A9" offset="52.2891171%"></stop>
            <stop stop-color="#1E1E3C" stop-opacity="0" offset="100%"></stop>
        </linearGradient>
        <linearGradient x1="3.03198761%" y1="47.3486175%" x2="102.997669%" y2="52.5455712%"
            id="linearGradient-5">
            <stop stop-color="#D1D1D1" offset="0%"></stop>
            <stop stop-color="#EAEAEA" offset="12.4043925%"></stop>
            <stop stop-color="#E6E6E6" offset="35.2655157%"></stop>
            <stop stop-color="#FFFFFF" offset="56.7908654%"></stop>
            <stop stop-color="#DEDEDE" offset="100%"></stop>
        </linearGradient>
    </defs>
    <g id="页面-1" stroke="none" stroke-width="1" fill="none" fill-rule="evenodd">
        <g id="发射机智能监测系统" transform="translate(0, 0)" fill-rule="nonzero">
            <g id="形状结合备份-2">
                <use fill="url(#linearGradient-1)" xlink:href="#path-3"></use>
                <use fill="url(#linearGradient-2)" xlink:href="#path-3"></use>
            </g>
            <polygon id="直线备份" fill="url(#linearGradient-4)"
                points="181.002528 0.997485004 182.002515 1.00252771 181.999994 1.50252135 181.78569 43.9996509 181.783169 44.4996445 180.783182 44.4946018 180.785703 43.9946081 181.000006 1.49747865"></polygon>
            <path
                d="M7.54829093,29.9241018 C7.79766959,29.9511178 8.01274345,30.1113408 8.11,30.3425566 C8.36973686,30.7478455 8.55907242,31.1941364 8.67,31.6625566 C8.97,32.7625566 9.25,33.8625566 9.55,34.9525566 C9.81254309,35.9096788 10.1468224,36.845661 10.55,37.7525566 C10.6948971,38.0827705 10.8724468,38.39767 11.08,38.6925566 C11.1825172,38.8316038 11.2962292,38.9620381 11.42,39.0825566 C11.5794347,39.2811284 11.8203429,39.3966526 12.075,39.3966526 C12.3296571,39.3966526 12.5705653,39.2811284 12.73,39.0825566 C13.0005591,38.7560025 13.2228272,38.3922911 13.39,38.0025566 C13.9222099,36.8920941 14.3766371,35.7460021 14.75,34.5725566 C15.13,33.5025566 15.46,32.4125566 15.88,31.3625566 C15.9901695,31.0607936 16.1273947,30.7696084 16.29,30.4925566 C16.37,30.3725566 16.45,30.2025566 16.61,30.2125566 C16.77,30.2225566 16.8,30.4225566 16.84,30.5525566 C16.9854298,31.0248451 17.0825934,31.5106634 17.13,32.0025566 C17.36,33.7925566 17.56,35.5925566 17.79,37.3725566 C17.9344043,38.609432 18.1751355,39.8331487 18.51,41.0325566 C18.6272966,41.4988636 18.8162087,41.9441564 19.07,42.3525566 C19.2193379,42.6733791 19.541123,42.8785318 19.895,42.8785318 C20.248877,42.8785318 20.5706621,42.6733791 20.72,42.3525566 C20.979947,41.9398681 21.1597542,41.4818685 21.25,41.0025566 C21.4102723,40.2574247 21.5205184,39.5024057 21.58,38.7425566 C21.76,36.8925566 21.87,35.0425566 22.01,33.1925566 C22.0560866,32.3375639 22.1529238,31.4860641 22.3,30.6425566 C22.3,30.4725566 22.39,30.3025566 22.44,30.1425566 C22.49,29.9825566 22.51,29.9825566 22.6,29.9825566 C22.69,29.9825566 22.73,30.0725566 22.74,30.1425566 C22.811837,30.442344 22.8652701,30.7462448 22.9,31.0525566 C23.0134056,32.2257312 23.0668085,33.4039331 23.06,34.5825566 C23.05,35.2225566 23,35.8525566 23,36.4825566 C22.94,37.8425566 22.92,39.2125566 23,40.5725566 C22.9947677,41.5505369 23.0953529,42.5262133 23.3,43.4825566 C23.3630747,43.7960755 23.4852488,44.0947235 23.66,44.3625566 C23.7552695,44.5429833 23.9369985,44.6613811 24.140535,44.6756286 C24.3440715,44.6898762 24.540523,44.5979511 24.66,44.4325566 C24.8932904,44.1354822 25.0665127,43.7958305 25.17,43.4325566 C25.4956247,42.5001171 25.7333265,41.5392662 25.88,40.5625566 C26.15,39.0225566 26.48,37.4825566 26.61,35.9225566 C26.61,35.6725566 26.61,35.6725566 26.9,35.6925566 L31.22,36.0425566 L35.14,36.3725566 L35.34,36.3725566 C35.52,36.3725566 35.58,36.4725566 35.58,36.6525566 L35.58,40.5425566 C35.5878572,40.7040679 35.502295,40.8557465 35.36,40.9325566 C34.2345874,41.7028261 33.0432838,42.3720978 31.8,42.9325566 C28.8094522,44.2931193 25.5552114,44.976066 22.27,44.9325566 C18.8586477,44.9122448 15.498043,44.1046045 12.45,42.5725566 C9.36413867,41.0228192 6.67251103,38.7894864 4.58,36.0425566 C4.4182111,35.8670543 4.37154109,35.6142584 4.46,35.3925566 C4.90125636,33.9752188 5.45985588,32.597117 6.13,31.2725566 C6.33366023,30.8810383 6.59678472,30.5234589 6.91,30.2125566 C7.05451584,30.0075328 7.29891228,29.8970858 7.54829093,29.9241018 Z M0.2,23.9525566 L1.2,24.0625566 L6.66,24.6925566 L11.83,25.3125566 L17.01,25.9025566 C19.01,26.1225566 20.92,26.3625566 22.87,26.5925566 L25.22,26.8525566 C25.57,26.8525566 25.58,26.8525566 25.58,27.2725566 L25.58,34.2125566 C25.6084631,34.8795879 25.5917583,35.5477808 25.53,36.2125566 C25.17,38.4325566 24.88,40.6525566 24.33,42.8325566 C24.2931729,43.0394056 24.2149418,43.2366841 24.1,43.4125566 C24.0205221,43.2914507 23.9852063,43.1466555 24,43.0025566 C23.94,42.1825566 23.94,41.3725566 24,40.5525566 C24.06,38.0725566 24.12,35.5525566 24,33.0925566 C23.9854896,32.0380566 23.8546986,30.988375 23.61,29.9625566 C23.5319199,29.6064738 23.3895943,29.2676033 23.19,28.9625566 C22.84,28.4625566 22.42,28.4625566 22.07,28.9625566 C21.8372059,29.3377571 21.6714046,29.7505685 21.58,30.1825566 C21.3125577,31.1837212 21.1187071,32.2031078 21,33.2325566 C20.75,35.2325566 20.6,37.1425566 20.41,39.0925566 C20.368253,39.7080993 20.2813526,40.3197447 20.15,40.9225566 C20.15,41.0425566 20.15,41.2225566 19.97,41.2425566 C19.79,41.2625566 19.76,41.0925566 19.7,40.9825566 C19.5332566,40.6679502 19.4120459,40.331254 19.34,39.9825566 C19.1753905,39.2310916 19.0617979,38.4693531 19,37.7025566 C18.86,36.1225566 18.78,34.5325566 18.58,32.9525566 C18.4873254,32.0887707 18.302953,31.2373058 18.03,30.4125566 C17.926791,30.1061918 17.7856976,29.8139269 17.61,29.5425566 C17.4039634,29.1939966 17.0762671,28.9339767 16.69,28.8125566 C16.4425604,28.7446404 16.1777934,28.8175473 16,29.0025566 C15.7768966,29.1927226 15.5875603,29.41925 15.44,29.6725566 C15.0226532,30.4139145 14.6873404,31.1985463 14.44,32.0125566 C13.95,33.4125566 13.44,34.8125566 13,36.2225566 C12.8562865,36.6683909 12.6721899,37.1001812 12.45,37.5125566 C12.14,38.0625566 11.92,38.0625566 11.59,37.5125566 C11.3097088,37.0351325 11.0817239,36.5288719 10.91,36.0025566 C10.38,34.4925566 9.98,32.9325566 9.55,31.3925566 C9.40115173,30.7811939 9.18656876,30.1877378 8.91,29.6225566 C8.74789957,29.3152391 8.53870176,29.0351839 8.29,28.7925566 C7.92363046,28.4262237 7.34873329,28.3716715 6.92,28.6625566 C6.43818437,28.9834137 6.04863514,29.424673 5.79,29.9425566 C5.36229693,30.6978646 4.99772371,31.4872157 4.7,32.3025566 C4.42,33.0425566 4.16,33.7825566 3.9,34.5225566 C3.85,34.6525566 3.81,34.7725566 3.74,35.0025566 C3.37258186,34.5052109 3.03851699,33.9840697 2.74,33.4425566 C1.40196894,31.0087611 0.530353119,28.3464326 0.17,25.5925566 C0.1,25.1225566 0.06,24.6425566 -1.13686838e-13,24.1625566 C-1.13686838e-13,24.0025566 0.05,23.9425566 0.2,23.9525566 Z M24.42,0.092556571 C28.9440658,0.448676081 33.2473115,2.1951232 36.74,5.09255657 C42.4519649,9.76767856 45.5116173,16.9442259 44.93,24.3025566 C44.6584176,27.7533243 43.5904541,31.0941331 41.81,34.0625566 L41.7,34.2125566 C41.59,34.0825566 41.63,33.9325566 41.63,33.8025566 L41.63,23.4425566 C41.63,22.9725566 41.63,22.9725566 41.13,22.8925566 L35.91,22.0625566 C35.7919928,22.0316288 35.6680072,22.0316288 35.55,22.0625566 L35.55,30.7425566 L34.55,30.6825566 L31.75,30.4525566 C31.46,30.4525566 31.46,30.4525566 31.46,30.1225566 L31.46,21.8625566 C31.46,21.5425566 31.46,21.5425566 31.14,21.5025566 L27.28,21.0425566 L23.53,20.6125566 C23.18,20.6125566 23.18,20.6125566 23.18,20.1525566 L23.18,4.04255657 C23.18,3.83255657 23.12,3.74255657 22.9,3.69255657 C21.55,3.40255657 20.19,3.08255657 18.84,2.78255657 C18.6,2.78255657 18.59,2.78255657 18.58,2.99255657 C18.5716667,3.16755657 18.5772222,3.19672324 18.5793056,3.26524176 L18.58,19.4825566 C18.58,20.0625566 18.58,20.0525566 17.98,19.9725566 L16.31,19.7725566 C15.99,19.7725566 15.98,19.7725566 15.98,19.4125566 L15.98,8.41255657 C15.9750092,8.31928996 15.9750092,8.22582319 15.98,8.13255657 C15.98,7.96255657 15.91,7.90255657 15.76,7.87255657 L13.25,7.32255657 L11.37,6.93255657 L11.37,18.7425566 C11.37,19.1725566 11.37,19.1825566 10.95,19.1325566 C10.53,19.0825566 9.81,19.0125566 9.24,18.9325566 C8.67,18.8525566 8.81,18.8725566 8.81,18.4625566 L8.81,15.1325566 C8.81,14.5425566 8.81,14.5325566 8.25,14.4225566 L4.59,13.6925566 C4.47601884,13.6571555 4.35398116,13.6571555 4.24,13.6925566 L4.24,18.3125566 C3.90462721,18.3129417 3.56991464,18.2828176 3.24,18.2225566 L0.76,17.9325566 C0.43,17.9325566 0.43,17.9325566 0.5,17.5625566 C1.26385081,14.1120129 2.84480554,10.895233 5.11,8.18255657 C8.26298882,4.32820232 12.6193022,1.6446851 17.48,0.562556571 C19.7534707,0.0368223704 22.0964046,-0.121848942 24.42,0.092556571 Z M56.49,7.91255657 L65,7.91255657 L65,25.8525566 C65.0218715,26.6668094 64.7362437,27.4594264 64.2,28.0725566 C63.5776761,28.7071358 62.7060033,29.0330975 61.82,28.9625566 L56.49,28.9625566 L56.49,7.96255657 L56.49,7.91255657 Z M60,10.6725566 L60,16.8425566 L61.47,16.8425566 L61.47,10.6725566 L60,10.6725566 Z M60.62,26.0825566 C60.8719361,26.0953834 61.1117597,25.9735682 61.25,25.7625566 C61.3887667,25.5776431 61.4657443,25.3537082 61.47,25.1225566 L61.47,19.7425566 L60,19.7425566 L60,26.0825566 L60.62,26.0825566 Z M82,15.4325566 L65.39,15.4325566 L65.39,13.6625566 L71.58,13.6625566 L71.58,13.0825566 L65.77,13.0825566 L65.77,11.3225566 L71.58,11.3225566 L71.58,10.7325566 L65.58,10.7325566 L65.58,9.00255657 L67.58,9.00255657 L67,7.94255657 L71.2,7.94255657 L71.79,9.00255657 L75.55,9.00255657 L76.07,7.94255657 L80.3,7.94255657 L79.77,9.00255657 L81.77,9.00255657 L81.77,10.7325566 L75.77,10.7325566 L75.77,11.3225566 L81.53,11.3225566 L81.53,13.0825566 L75.81,13.0825566 L75.81,13.6625566 L82,13.6625566 L82,15.4325566 Z M69.76,24.7025566 L75.0000132,24.7025566 L75.0000132,27.5825566 C75.0017866,27.993888 74.8225911,28.3851925 74.51,28.6525566 C74.2008951,28.9555969 73.7827829,29.1214001 73.35,29.1125566 L66.74,29.1125566 L67.68,27.2625566 L71.23,27.2625566 C71.3352811,27.2600013 71.435542,27.2170323 71.51,27.1425566 C71.5912266,27.0806715 71.6392279,26.9846689 71.64,26.8825566 L71.64,26.5825566 L65.39,26.5825566 L66.62,24.1825566 L65.39,24.1825566 L65.39,22.3025566 L75.0000132,22.3025566 L75.0000132,24.1825566 L70.1,24.1825566 L69.76,24.7025566 Z M80.21,23.2125566 L82.21,22.6525566 L82.21,24.8825566 L80.71,25.2625566 L81.71,29.1425566 L78.16,29.1425566 L77.4,26.1425566 L75.52,26.6425566 L75.52,24.4425566 L76.84,24.0625566 L75.84,20.1825566 L74.14,20.1825566 L74.52,21.7725566 L72.29,21.7725566 L71.91,20.1825566 L71.91,20.1825566 L71.91,21.8025566 L68.35,21.8025566 L68.35,20.2125566 L68.29,20.2125566 L67.94,21.8025566 L65.71,21.8025566 L66.09,20.2125566 L65.47,20.2125566 L65.47,18.3025566 L68.35,18.3025566 L68.35,17.8325566 L65.77,17.8925566 L65.77,16.0025566 L74.05,15.8325566 L74.05,17.7125566 L71.88,17.7725566 L71.88,18.2925566 L75.31,18.2925566 L74.69,15.9225566 L78.34,15.9225566 L79,18.3025566 L79.68,18.3025566 L79.15,16.1325566 L81.15,16.1325566 L82.15,20.2125566 L79.45,20.2125566 L80.21,23.2125566 Z M99.8,10.0025566 L85.24,10.0025566 L85.24,7.91255657 L99.8,7.91255657 L99.8,10.0025566 Z M88.94,29.0525566 L85.24,29.0525566 L85.24,17.4225566 L99.59,17.4225566 L99.59,26.1125566 C99.5950766,26.5131151 99.5096171,26.9096475 99.34,27.2725566 C99.1848959,27.6293167 98.9566426,27.9495526 98.67,28.2125566 C98.0637745,28.7682744 97.2723834,29.0784141 96.45,29.0825566 L94.31,29.0825566 L95.1,27.0825566 C95.2969553,27.0935455 95.4894052,27.0209229 95.63,26.8825566 C95.7653076,26.7515367 95.8411753,26.5708993 95.84,26.3825566 L95.84,24.8825566 L94.22,24.8825566 L94.22,29.0525566 L90.61,29.0525566 L90.61,24.8825566 L88.94,24.8825566 L88.94,29.0525566 Z M85.65,11.5825566 L85.65,11.0025566 L99.4200431,11.0025566 L99.4200431,13.4725566 C99.4223296,13.9071557 99.3302047,14.337072 99.15,14.7325566 C98.9734265,15.1098442 98.7255401,15.4494146 98.42,15.7325566 C98.1066397,16.0236316 97.7444335,16.2572038 97.35,16.4225566 C96.9347381,16.5936392 96.4890815,16.6786882 96.04,16.6725566 L85.65,16.6725566 L85.65,11.5825566 Z M88.94,19.4825566 L88.94,22.8325566 L89.55,22.8325566 L89.17,20.1825566 L91.9,20.1825566 L92.31,22.8325566 L92.55,22.8325566 L92.93,20.1825566 L95.69,20.1825566 L95.28,22.8325566 L95.84,22.8325566 L95.84,19.4825566 L88.94,19.4825566 Z M95.22,13.0825566 L89.85,13.0825566 L89.85,14.6625566 L94.25,14.6625566 C94.504722,14.666946 94.7515155,14.5739514 94.94,14.4025566 C95.1272458,14.2354341 95.2299527,13.993339 95.22,13.7425566 L95.22,13.0825566 Z M107.14,26.6125566 L107.64,26.6125566 L107.4,25.5025566 L110.16,25.5025566 L110.9,29.0025566 L108.14,29.0025566 L108.05,28.6225566 L99.98,29.0325566 L99.98,27.0025566 L104.17,26.7725566 L104.17,24.5325566 L100.27,24.5325566 L100.27,10.2925566 L104.17,10.2925566 L104.17,7.91255657 L107.17,7.91255657 L107.17,10.2925566 L111.08,10.2925566 L111.08,22.3625566 C111.088976,22.9384043 110.86547,23.4935635 110.46,23.9025566 C110.071862,24.3156231 109.526683,24.5445984 108.96,24.5325566 L107.17,24.5325566 L107.14,26.6125566 Z M104.14,22.5625566 L104.14,12.2825566 L103.5,12.2825566 L103.5,22.5625566 L104.14,22.5625566 Z M107.14,12.2825566 L107.14,22.5625566 L107.46,22.5625566 C107.549078,22.5755596 107.639144,22.5464574 107.703771,22.4837889 C107.768398,22.4211203 107.800257,22.3319925 107.79,22.2425566 L107.79,12.2425566 L107.14,12.2825566 Z M119.09,25.0625566 L119.09,19.0025566 L117,25.5325566 L113,25.5325566 L115.73,17.1025566 L119.11,17.1025566 L119.11,15.7225566 L115.73,15.7225566 L113,9.08255657 L117,9.08255657 L119.08,14.2225566 L119.08,7.91255657 L123.16,7.91255657 L123.16,26.5025566 L120.28,29.1125566 L115,29.1125566 L119.09,25.0625566 Z M131,7.91255657 L131,14.2225566 L133.12,9.08255657 L137.12,9.08255657 L134.39,15.7225566 L131,15.7225566 L131,17.1025566 L134.41,17.1025566 L137.14,25.5325566 L133.14,25.5325566 L131,19.0025566 L131,25.2525566 C130.991553,25.5043548 131.087873,25.748387 131.266021,25.9265354 C131.44417,26.1046838 131.688202,26.2010039 131.94,26.1925566 L138.52,26.1925566 L137.52,29.1025566 L130.14,29.1025566 C129.710235,29.1097323 129.283946,29.0244745 128.89,28.8525566 C128.516606,28.6868373 128.177456,28.4528236 127.89,28.1625566 C127.594472,27.8773896 127.356788,27.5378411 127.19,27.1625566 C127.020172,26.7644438 126.935034,26.3353507 126.94,25.9025566 L126.94,7.90255657 L131,7.91255657 Z M140.35,12.7525566 L142.35,12.7525566 L140.35,7.91255657 L144.4,7.91255657 L147.13,14.5225566 L145.13,14.5225566 L147.13,19.3325566 L143.13,19.3325566 L140.35,12.7525566 Z M144.4,29.0825566 L140.35,29.0825566 L143.08,20.7125566 L147.08,20.7125566 L144.4,29.0825566 Z M146.72,29.0225566 L147.72,25.7025566 L147.72,9.26255657 L156.47,9.26255657 L156.47,7.91255657 L160.34,7.91255657 L160.34,9.26255657 L166.34,9.26255657 L165,14.4925566 L161.27,14.4925566 L161.92,12.1125566 L160.33,12.1125566 L160.33,15.3425566 L165.59,15.3425566 L165.59,18.1925566 C165.391025,19.37305 164.988365,20.5099724 164.4,21.5525566 C163.824921,22.5551854 163.118696,23.4766413 162.3,24.2925566 C162.817802,24.5344999 163.352552,24.7383735 163.9,24.9025566 C164.46,25.0625566 165.02,25.2025566 165.59,25.3225566 L165.59,29.0525566 C164.440533,28.8671124 163.307147,28.59296 162.2,28.2325566 C161.05447,27.864497 159.948897,27.3820653 158.9,26.7925566 C157.85188,27.3766092 156.750172,27.8588158 155.61,28.2325566 C154.506244,28.5929226 153.376184,28.8670791 152.23,29.0525566 L152.23,25.3225566 C152.79458,25.207763 153.352152,25.0608577 153.9,24.8825566 C154.45,24.7025566 154.99,24.5125566 155.52,24.2925566 C154.749712,23.5551037 154.077525,22.7215921 153.52,21.8125566 C152.961444,20.8835106 152.556249,19.8705254 152.32,18.8125566 L156.49,18.8125566 C156.751125,19.4656066 157.086674,20.0863722 157.49,20.6625566 C157.885695,21.2058558 158.334583,21.7083419 158.83,22.1625566 C159.402973,21.6431382 159.910091,21.055419 160.34,20.4125566 C160.799953,19.7167444 161.188584,18.9763339 161.5,18.2025566 L151.8,18.2025566 L151.8,25.7025566 L150.8,29.0225566 L146.72,29.0225566 Z M151.8,12.1125566 L151.8,15.3425566 L156.47,15.3425566 L156.47,12.1125566 L151.8,12.1125566 Z M56.67,33.5725566 L58.25,33.5725566 L59.25,36.2025566 C59.37,36.5525566 59.47,36.9425566 59.58,37.3125566 L59.58,37.3125566 C59.71,36.9425566 59.8,36.5525566 59.92,36.2025566 L60.85,33.5725566 L62.44,33.5725566 L62.44,39.6625566 L61.12,39.6625566 L61.12,37.5725566 C61.12,36.9725566 61.23,36.0625566 61.3,35.4625566 L61.3,35.4625566 L60.79,36.9225566 L59.97,39.1525566 L59.17,39.1525566 L58.35,36.9225566 L57.86,35.4625566 L57.86,35.4625566 C57.9462379,36.1627042 57.9929785,36.8671528 58,37.5725566 L58,39.6625566 L56.67,39.6625566 L56.67,33.5725566 Z M63.31,37.3425566 C63.2661832,36.7216655 63.4769938,36.1096879 63.8939019,35.6475048 C64.3108099,35.1853216 64.8978927,34.9127569 65.52,34.8925566 C66.86,34.8925566 67.52,35.8925566 67.52,37.1425566 C67.5227931,37.350798 67.5026721,37.558715 67.46,37.7625566 L64.71,37.7625566 C64.8021446,38.3238525 65.3138479,38.7174704 65.88,38.6625566 C66.2330909,38.6558738 66.5781165,38.5558164 66.88,38.3725566 L67.36,39.2425566 C66.8696116,39.5850104 66.2880512,39.7730599 65.69,39.7825566 C65.0384416,39.816069 64.4039634,39.5676189 63.948411,39.1005819 C63.4928586,38.633545 63.2602791,37.9930789 63.31,37.3425566 Z M66.31,36.8125566 C66.31,36.3525566 66.1,36.0025566 65.57,36.0025566 C65.1197189,36.0118443 64.7509647,36.3632454 64.72,36.8125566 L66.31,36.8125566 Z M67.9,40.4525566 C67.9084827,40.03888 68.1708548,39.6731492 68.56,39.5325566 L68.56,39.5325566 C68.2881495,39.3591367 68.1283737,39.0548017 68.14,38.7325566 C68.1624383,38.3780963 68.3516709,38.0552878 68.65,37.8625566 L68.65,37.8625566 C68.2299726,37.574002 67.9851732,37.0919355 68,36.5825566 C68.0120062,36.0821825 68.2376905,35.610897 68.6199966,35.2878484 C69.0023027,34.9647998 69.5046364,34.82091 70,34.8925566 C70.248565,34.8883968 70.4958466,34.9290459 70.73,35.0125566 L72.44,35.0125566 L72.44,36.0625566 L71.72,36.0625566 C71.8156169,36.2370806 71.8638834,36.4335939 71.86,36.6325566 C71.86,37.7125566 71.03,38.1925566 70,38.1925566 C69.8141476,38.1877398 69.6295234,38.1608853 69.45,38.1125566 C69.3474805,38.1856526 69.2905997,38.3069982 69.3,38.4325566 C69.3,38.6525566 69.49,38.7425566 69.99,38.7425566 L70.73,38.7425566 C71.87,38.7425566 72.52,39.1025566 72.52,39.9425566 C72.52,40.7825566 71.52,41.6225566 69.88,41.6225566 C68.78,41.6225566 67.9,41.2825566 67.9,40.4525566 Z M71.1,40.1925566 C71.1,39.9125566 70.85,39.8625566 70.42,39.8625566 L70,39.8625566 C69.774997,39.8722308 69.5497039,39.8520553 69.33,39.8025566 C69.1991568,39.9039676 69.1188649,40.0572522 69.11,40.2225566 C69.11,40.5425566 69.5,40.7125566 70.11,40.7125566 C70.72,40.7125566 71.1,40.4925566 71.1,40.1925566 L71.1,40.1925566 Z M70.56,36.5825566 C70.56,36.1125566 70.31,35.8625566 69.97,35.8625566 C69.63,35.8625566 69.38,36.1125566 69.38,36.5825566 C69.38,37.0525566 69.63,37.3125566 69.97,37.3125566 C70.31,37.3125566 70.56,37.0725566 70.56,36.5825566 L70.56,36.5825566 Z M72.68,38.3625566 C72.68,37.3625566 73.44,36.8525566 75.26,36.6525566 C75.26,36.2725566 75.03,36.0525566 74.56,36.0525566 C74.124966,36.0826593 73.7049201,36.2238223 73.34,36.4625566 L72.83,35.4625566 C73.4307895,35.0854913 74.1210402,34.8749649 74.83,34.8525566 C76.03,34.8525566 76.71,35.5225566 76.71,36.9825566 L76.71,39.6225566 L75.53,39.6225566 L75.42,39.1525566 L75.42,39.1525566 C75.0664642,39.5092291 74.5916843,39.7198457 74.09,39.7425566 C73.7155881,39.7623257 73.3500187,39.6243288 73.0820654,39.3620767 C72.8141121,39.0998246 72.6682864,38.737307 72.68,38.3625566 Z M75.26,38.2825566 L75.26,37.5325566 C74.35,37.6625566 74.06,37.9225566 74.06,38.2525566 C74.06,38.5825566 74.26,38.6525566 74.56,38.6525566 C74.8375723,38.6425148 75.0953606,38.5062552 75.26,38.2825566 Z M77.31,35.0025566 L78.76,35.0025566 L79.17,37.0825566 C79.25,37.5425566 79.3,38.0125566 79.37,38.4725566 L79.37,38.4725566 C79.45,38.0125566 79.53,37.5325566 79.64,37.0825566 L80.15,35.0025566 L81.41,35.0025566 L81.91,37.0825566 C82.02,37.5425566 82.1,38.0125566 82.2,38.4725566 L82.2,38.4725566 C82.27,38.0125566 82.32,37.5425566 82.41,37.0825566 L82.81,35.0025566 L84.2,35.0025566 L83.1,39.6525566 L81.4,39.6525566 L81,37.8925566 C80.91,37.4525566 80.83,37.0325566 80.75,36.5225566 L80.75,36.5225566 C80.67,37.0325566 80.61,37.4525566 80.53,37.8925566 L80.15,39.6625566 L78.46,39.6625566 L77.31,35.0025566 Z M84.55,38.3625566 C84.55,37.3625566 85.32,36.8525566 87.13,36.6525566 C87.13,36.2725566 86.9,36.0525566 86.43,36.0525566 C85.9953134,36.0843941 85.5756909,36.2254148 85.21,36.4625566 L84.7,35.4625566 C85.3007895,35.0854913 85.9910402,34.8749649 86.7,34.8525566 C87.9,34.8525566 88.58,35.5225566 88.58,36.9825566 L88.58,39.6225566 L87.4,39.6225566 L87.3,39.1525566 L87.3,39.1525566 C86.9499976,39.5143204 86.4730872,39.7258821 85.97,39.7425566 C85.593905,39.7652397 85.2256374,39.628538 84.9554363,39.3659482 C84.6852352,39.1033584 84.5380695,38.7391461 84.55,38.3625566 Z M87.13,38.2825566 L87.13,37.5325566 C86.22,37.6625566 85.93,37.9225566 85.93,38.2525566 C85.93,38.5825566 86.13,38.6525566 86.43,38.6525566 C86.7075723,38.6425148 86.9653606,38.5062552 87.13,38.2825566 L87.13,38.2825566 Z M89.07,35.0025566 L90.54,35.0025566 L91.1,37.1425566 C91.22,37.6025566 91.33,38.0825566 91.45,38.5725566 L91.45,38.5725566 C91.56,38.0825566 91.68,37.5725566 91.8,37.1425566 L92.41,35.0025566 L93.81,35.0025566 L92.3,39.6625566 L90.62,39.6625566 L89.07,35.0025566 Z M94,37.3425566 C93.9561832,36.7216655 94.1669938,36.1096879 94.5839019,35.6475048 C95.0008099,35.1853216 95.5878927,34.9127569 96.21,34.8925566 C97.55,34.8925566 98.21,35.8925566 98.21,37.1425566 C98.2127931,37.350798 98.1926721,37.558715 98.15,37.7625566 L95.4,37.7625566 C95.4921446,38.3238525 96.0038479,38.7174704 96.57,38.6625566 C96.9230909,38.6558738 97.2681165,38.5558164 97.57,38.3725566 L98.05,39.2425566 C97.5596116,39.5850104 96.9780512,39.7730599 96.38,39.7825566 C95.7284416,39.816069 95.0939634,39.5676189 94.638411,39.1005819 C94.1828586,38.633545 93.9502791,37.9930789 94,37.3425566 Z M97,36.8125566 C97,36.3525566 96.79,36.0025566 96.26,36.0025566 C95.8097189,36.0118443 95.4409647,36.3632454 95.41,36.8125566 L97,36.8125566 Z M100.8,33.5725566 L104.68,33.5725566 L104.68,34.7825566 L102.26,34.7825566 L102.26,36.1225566 L104.34,36.1225566 L104.34,37.3425566 L102.26,37.3425566 L102.26,39.6625566 L100.8,39.6625566 L100.8,33.5725566 Z M105.23,37.8925566 L105.23,35.0025566 L106.69,35.0025566 L106.69,37.7025566 C106.69,38.3425566 106.86,38.5225566 107.23,38.5225566 C107.554188,38.5215896 107.850949,38.3404498 108,38.0525566 L108,35.0025566 L109.46,35.0025566 L109.46,39.6525566 L108.27,39.6525566 L108.17,39.0125566 L108.17,39.0125566 C107.832233,39.4840543 107.289964,39.7663313 106.71,39.7725566 C105.66,39.7825566 105.23,39.0525566 105.23,37.8925566 Z M110.07,39.1225566 L110.71,38.2125566 C111.039177,38.5005158 111.453671,38.672636 111.89,38.7025566 C112.28,38.7025566 112.44,38.5625566 112.44,38.3425566 C112.44,38.1225566 111.99,37.9325566 111.51,37.7425566 C111.03,37.5525566 110.3,37.1425566 110.3,36.3725566 C110.3,35.6025566 111.02,34.8925566 112.1,34.8925566 C112.708088,34.9002439 113.29606,35.1114912 113.77,35.4925566 L113.12,36.3625566 C112.834656,36.1313886 112.486055,35.9919482 112.12,35.9625566 C111.8,35.9625566 111.63,36.0825566 111.63,36.3025566 C111.63,36.5225566 112.06,36.6825566 112.54,36.8525566 C113.02,37.0225566 113.77,37.4125566 113.77,38.2525566 C113.77,39.0925566 113.1,39.7825566 111.83,39.7825566 C111.18778,39.7567733 110.570818,39.5254127 110.07,39.1225566 Z M114.37,33.6125566 C114.336977,33.2714967 114.516935,32.9452007 114.823014,32.7911618 C115.129093,32.6371229 115.49837,32.6870082 115.752606,32.9167394 C116.006842,33.1464707 116.093771,33.5088203 115.971436,33.828893 C115.849101,34.1489657 115.542651,34.3609616 115.2,34.3625566 C114.988338,34.3821434 114.778147,34.3121927 114.620432,34.1696789 C114.462716,34.027165 114.371893,33.8251142 114.37,33.6125566 L114.37,33.6125566 Z M114.48,35.0125566 L115.92,35.0125566 L115.92,39.6625566 L114.48,39.6625566 L114.48,35.0125566 Z M116.68,37.3425566 C116.766734,36.1131681 117.814719,35.1752322 119.046163,35.2248632 C120.277608,35.2744941 121.246712,36.2937247 121.23423,37.5261058 C121.221748,38.7584868 120.232197,39.7578789 119,39.7825566 C118.360556,39.7923129 117.746163,39.5342352 117.305495,39.0707742 C116.864827,38.6073131 116.638036,37.9806971 116.68,37.3425566 L116.68,37.3425566 Z M119.75,37.3425566 C119.75,36.5625566 119.5,36.0725566 118.96,36.0725566 C118.42,36.0725566 118.17,36.5625566 118.17,37.3425566 C118.17,38.1225566 118.41,38.6025566 118.96,38.6025566 C119.51,38.6025566 119.75,38.1125566 119.75,37.3425566 Z M122,35.0025566 L123.18,35.0025566 L123.28,35.5825566 L123.28,35.5825566 C123.661401,35.1571044 124.199041,34.9045217 124.77,34.8825566 C125.77,34.8825566 126.22,35.6125566 126.22,36.7725566 L126.22,39.6525566 L124.77,39.6525566 L124.77,37.0025566 C124.77,36.3625566 124.59,36.1725566 124.23,36.1725566 C123.91193,36.1886972 123.616469,36.3418997 123.42,36.5925566 L123.42,39.7025566 L122,39.7025566 L122,35.0025566 Z"
                id="形状结合备份-3" fill="url(#linearGradient-5)"></path>
        </g>
    </g>
</svg>