<?xml version="1.0" encoding="UTF-8"?>
<svg width="85px" height="120px" viewBox="0 0 85 120" version="1.1" xmlns="http://www.w3.org/2000/svg" xmlns:xlink="http://www.w3.org/1999/xlink">
    <title>taps-电源</title>
    <defs>
        <linearGradient x1="95.6915389%" y1="71.1541908%" x2="23.1991873%" y2="8.99600888%" id="linearGradient-1">
            <stop stop-color="#061F51" offset="0%"></stop>
            <stop stop-color="#284AAC" offset="100%"></stop>
        </linearGradient>
        <circle id="path-2" cx="42" cy="41" r="34"></circle>
        <filter x="-12.5%" y="-12.5%" width="125.0%" height="125.0%" filterUnits="objectBoundingBox" id="filter-3">
            <feMorphology radius="3" operator="dilate" in="SourceAlpha" result="shadowSpreadOuter1"></feMorphology>
            <feOffset dx="0" dy="0" in="shadowSpreadOuter1" result="shadowOffsetOuter1"></feOffset>
            <feMorphology radius="3" operator="erode" in="SourceAlpha" result="shadowInner"></feMorphology>
            <feOffset dx="0" dy="0" in="shadowInner" result="shadowInner"></feOffset>
            <feComposite in="shadowOffsetOuter1" in2="shadowInner" operator="out" result="shadowOffsetOuter1"></feComposite>
            <feGaussianBlur stdDeviation="1.5" in="shadowOffsetOuter1" result="shadowBlurOuter1"></feGaussianBlur>
            <feColorMatrix values="0 0 0 0 0.300315415   0 0 0 0 0.483258009   0 0 0 0 0.913496377  0 0 0 1 0" type="matrix" in="shadowBlurOuter1"></feColorMatrix>
        </filter>
        <filter x="-12.5%" y="-12.5%" width="125.0%" height="125.0%" filterUnits="objectBoundingBox" id="filter-4">
            <feMorphology radius="2" operator="erode" in="SourceAlpha" result="shadowSpreadInner1"></feMorphology>
            <feGaussianBlur stdDeviation="1.5" in="shadowSpreadInner1" result="shadowBlurInner1"></feGaussianBlur>
            <feOffset dx="0" dy="0" in="shadowBlurInner1" result="shadowOffsetInner1"></feOffset>
            <feComposite in="shadowOffsetInner1" in2="SourceAlpha" operator="arithmetic" k2="-1" k3="1" result="shadowInnerInner1"></feComposite>
            <feColorMatrix values="0 0 0 0 0.301960784   0 0 0 0 0.482352941   0 0 0 0 0.91372549  0 0 0 1 0" type="matrix" in="shadowInnerInner1"></feColorMatrix>
        </filter>
        <linearGradient x1="42.1542433%" y1="41.1249283%" x2="23.1991873%" y2="8.99600888%" id="linearGradient-5">
            <stop stop-color="#B1CBFF" stop-opacity="0" offset="0%"></stop>
            <stop stop-color="#F0F8FF" offset="100%"></stop>
        </linearGradient>
        <linearGradient x1="50%" y1="0%" x2="50%" y2="100%" id="linearGradient-6">
            <stop stop-color="#D6EAFF" offset="0%"></stop>
            <stop stop-color="#538DE7" offset="100%"></stop>
        </linearGradient>
    </defs>
    <g id="taps-电源" stroke="none" stroke-width="1" fill="none" fill-rule="evenodd">
        <g id="编组" transform="translate(1, 1)">
            <circle id="椭圆形" stroke="#5372CB" stroke-linecap="square" cx="41.5" cy="41.5" r="26.5"></circle>
            <circle id="椭圆形" stroke="url(#linearGradient-1)" stroke-width="2" stroke-linecap="square" cx="41.5" cy="41.5" r="41.5"></circle>
            <g id="椭圆形" stroke-linecap="square">
                <use fill="black" fill-opacity="1" filter="url(#filter-3)" xlink:href="#path-2"></use>
                <use fill="black" fill-opacity="1" filter="url(#filter-4)" xlink:href="#path-2"></use>
                <use stroke="#6B9DEA" stroke-width="4" xlink:href="#path-2"></use>
            </g>
            <circle id="椭圆形" stroke="url(#linearGradient-5)" stroke-linecap="square" cx="42" cy="41" r="36"></circle>
            <path d="M46.4345339,24.6928636 L30.9438503,43.6735431 C30.8740101,43.7591181 30.8867656,43.885107 30.9723406,43.9549472 C31.0080435,43.9840854 31.0527136,44 31.0987976,44 L38.7184999,44 C38.8289568,44 38.9184999,44.0895431 38.9184999,44.2 C38.9184999,44.2350405 38.9092938,44.269466 38.8918034,44.2998292 L31.5521509,57.0414661 C31.4970167,57.137179 31.5299123,57.2594647 31.6256252,57.3145989 C31.6979314,57.3562499 31.7884982,57.348632 31.8528307,57.2954876 L53.5712408,39.3541924 C53.6563989,39.2838444 53.6684049,39.1577818 53.5980569,39.0726237 C53.5600629,39.026631 53.5035209,39 53.4438645,39 L43.5140862,39 C43.4036293,39 43.3140862,38.9104569 43.3140862,38.8 C43.3140862,38.7836815 43.3160834,38.7674243 43.3200332,38.7515911 L46.7835342,24.8677295 C46.8102697,24.7605569 46.7450626,24.652003 46.6378901,24.6252675 C46.5627341,24.6065189 46.4835101,24.6328532 46.4345339,24.6928636 Z" id="路径-2" fill="url(#linearGradient-6)"></path>
        </g>
        <g id="电源" transform="translate(27.858, 92.97)" fill="#FFFFFF" fill-rule="nonzero">
            <path d="M1.242,10.35 L1.242,7.596 L5.85,7.596 L5.85,10.35 L1.242,10.35 Z M5.85,3.762 L5.85,6.48 L1.242,6.48 L1.242,3.762 L5.85,3.762 Z M11.916,3.762 L11.916,6.48 L7.11,6.48 L7.11,3.762 L11.916,3.762 Z M7.11,10.35 L7.11,7.596 L11.916,7.596 L11.916,10.35 L7.11,10.35 Z M8.406,14.85 C7.326,14.85 7.11,14.634 7.11,13.59 L7.11,11.502 L13.122,11.502 L13.122,2.592 L7.11,2.592 L7.11,0 L5.85,0 L5.85,2.592 L0,2.592 L0,12.618 L1.242,12.618 L1.242,11.502 L5.85,11.502 L5.85,13.59 C5.85,15.552 6.444,16.056 8.334,16.056 L12.42,16.056 C14.274,16.056 14.652,15.12 14.868,12.42 C14.49,12.33 14.004,12.114 13.68,11.898 C13.536,14.256 13.374,14.85 12.366,14.85 L8.406,14.85 Z" id="形状"></path>
            <path d="M21.006,2.16 C20.322,1.62 18.972,0.774 17.982,0.216 L17.28,1.026 C18.27,1.656 19.602,2.538 20.286,3.096 L21.006,2.16 Z M20.16,6.822 C19.458,6.336 18.09,5.544 17.082,5.022 L16.416,5.85 C17.424,6.426 18.756,7.272 19.458,7.794 L20.16,6.822 Z M19.566,9.684 C18.756,11.682 17.622,14.076 16.812,15.462 L17.856,16.128 C18.72,14.472 19.764,12.24 20.52,10.35 L19.566,9.684 Z M22.932,1.944 L32.688,1.944 L32.688,0.846 L21.78,0.846 L21.78,5.778 C21.78,8.73 21.582,12.78 19.53,15.678 C19.8,15.804 20.322,16.092 20.52,16.308 C22.644,13.302 22.932,8.892 22.932,5.778 L22.932,1.944 Z M24.75,11.322 C24.228,12.51 23.4,13.788 22.536,14.688 C22.824,14.832 23.31,15.102 23.508,15.3 C24.318,14.364 25.236,12.924 25.83,11.61 L24.75,11.322 Z M25.146,7.614 L30.852,7.614 L30.852,9.324 L25.146,9.324 L25.146,7.614 Z M25.146,5.058 L30.852,5.058 L30.852,6.732 L25.146,6.732 L25.146,5.058 Z M31.968,10.26 L31.968,4.122 L27.954,4.122 C28.188,3.636 28.44,3.078 28.674,2.538 L27.36,2.268 C27.234,2.79 27.018,3.528 26.838,4.122 L24.066,4.122 L24.066,10.26 L27.342,10.26 L27.342,15.084 C27.342,15.282 27.27,15.354 27.036,15.372 C26.82,15.372 26.028,15.372 25.128,15.354 C25.29,15.66 25.434,16.074 25.488,16.38 C26.676,16.398 27.432,16.398 27.918,16.218 C28.368,16.038 28.494,15.732 28.494,15.102 L28.494,10.26 L31.968,10.26 Z M29.808,11.592 C30.546,12.726 31.428,14.22 31.86,15.12 L32.958,14.616 C32.49,13.77 31.572,12.294 30.834,11.196 L29.808,11.592 Z" id="形状"></path>
        </g>
    </g>
</svg>