<?xml version="1.0" encoding="UTF-8"?>
<svg width="85px" height="120px" viewBox="0 0 85 120" version="1.1" xmlns="http://www.w3.org/2000/svg" xmlns:xlink="http://www.w3.org/1999/xlink">
    <title>taps-机柜</title>
    <defs>
        <linearGradient x1="95.6915389%" y1="71.1541908%" x2="23.1991873%" y2="8.99600888%" id="linearGradient-1">
            <stop stop-color="#061F51" offset="0%"></stop>
            <stop stop-color="#284AAC" offset="100%"></stop>
        </linearGradient>
        <circle id="path-2" cx="42" cy="41" r="34"></circle>
        <filter x="-12.5%" y="-12.5%" width="125.0%" height="125.0%" filterUnits="objectBoundingBox" id="filter-3">
            <feMorphology radius="3" operator="dilate" in="SourceAlpha" result="shadowSpreadOuter1"></feMorphology>
            <feOffset dx="0" dy="0" in="shadowSpreadOuter1" result="shadowOffsetOuter1"></feOffset>
            <feMorphology radius="3" operator="erode" in="SourceAlpha" result="shadowInner"></feMorphology>
            <feOffset dx="0" dy="0" in="shadowInner" result="shadowInner"></feOffset>
            <feComposite in="shadowOffsetOuter1" in2="shadowInner" operator="out" result="shadowOffsetOuter1"></feComposite>
            <feGaussianBlur stdDeviation="1.5" in="shadowOffsetOuter1" result="shadowBlurOuter1"></feGaussianBlur>
            <feColorMatrix values="0 0 0 0 0.300315415   0 0 0 0 0.483258009   0 0 0 0 0.913496377  0 0 0 1 0" type="matrix" in="shadowBlurOuter1"></feColorMatrix>
        </filter>
        <filter x="-12.5%" y="-12.5%" width="125.0%" height="125.0%" filterUnits="objectBoundingBox" id="filter-4">
            <feMorphology radius="2" operator="erode" in="SourceAlpha" result="shadowSpreadInner1"></feMorphology>
            <feGaussianBlur stdDeviation="1.5" in="shadowSpreadInner1" result="shadowBlurInner1"></feGaussianBlur>
            <feOffset dx="0" dy="0" in="shadowBlurInner1" result="shadowOffsetInner1"></feOffset>
            <feComposite in="shadowOffsetInner1" in2="SourceAlpha" operator="arithmetic" k2="-1" k3="1" result="shadowInnerInner1"></feComposite>
            <feColorMatrix values="0 0 0 0 0.301960784   0 0 0 0 0.482352941   0 0 0 0 0.91372549  0 0 0 1 0" type="matrix" in="shadowInnerInner1"></feColorMatrix>
        </filter>
        <linearGradient x1="42.1542433%" y1="41.1249283%" x2="23.1991873%" y2="8.99600888%" id="linearGradient-5">
            <stop stop-color="#B1CBFF" stop-opacity="0" offset="0%"></stop>
            <stop stop-color="#F0F8FF" offset="100%"></stop>
        </linearGradient>
        <linearGradient x1="50%" y1="0%" x2="50%" y2="100%" id="linearGradient-6">
            <stop stop-color="#D6EAFF" offset="0%"></stop>
            <stop stop-color="#538DE7" offset="100%"></stop>
        </linearGradient>
    </defs>
    <g id="taps-机柜" stroke="none" stroke-width="1" fill="none" fill-rule="evenodd">
        <g id="编组" transform="translate(1, 1)">
            <circle id="椭圆形" stroke="#5372CB" stroke-linecap="square" cx="41.5" cy="41.5" r="26.5"></circle>
            <circle id="椭圆形" stroke="url(#linearGradient-1)" stroke-width="2" stroke-linecap="square" cx="41.5" cy="41.5" r="41.5"></circle>
            <g id="椭圆形" stroke-linecap="square">
                <use fill="black" fill-opacity="1" filter="url(#filter-3)" xlink:href="#path-2"></use>
                <use fill="black" fill-opacity="1" filter="url(#filter-4)" xlink:href="#path-2"></use>
                <use stroke="#6B9DEA" stroke-width="4" xlink:href="#path-2"></use>
            </g>
            <circle id="椭圆形" stroke="url(#linearGradient-5)" stroke-linecap="square" cx="42" cy="41" r="36"></circle>
            <path d="M31.8461527,54.125 L31.8461527,56 L30,56 L30,53 L30.0382848,53 C30.0280113,52.9548053 30.0227769,52.9084939 30.0226883,52.8620117 L30.0226883,26.7410059 C30.022716,26.33 30.4170046,26 30.9049275,26 L53.1219084,26 C53.6084184,26 54.0027347,26.3314941 54,26.7410059 L54,52.8620117 C53.9996539,52.9178633 53.9920167,52.9734048 53.9771931,53.0270117 L53.9771931,56 L52.153833,56 L52.153833,54.125 L31.8461527,54.125 Z M33,33 L41,33 L41,30 L33,30 L33,33 L33,33 Z M33,38 L41,38 L41,35 L33,35 L33,38 L33,38 Z M33,43 L41,43 L41,40 L33,40 L33,43 L33,43 Z M33,48 L41,48 L41,45 L33,45 L33,48 L33,48 Z M43,33 L51,33 L51,30 L43,30 L43,33 L43,33 Z M43,38 L51,38 L51,35 L43,35 L43,38 L43,38 Z M43,43 L51,43 L51,40 L43,40 L43,43 L43,43 Z M43,48 L51,48 L51,45 L43,45 L43,48 L43,48 Z" id="形状" fill="url(#linearGradient-6)" fill-rule="nonzero"></path>
        </g>
        <g id="机柜" transform="translate(26.22, 92.952)" fill="#FFFFFF" fill-rule="nonzero">
            <path d="M7.2,8.73 C6.804,8.19 5.13,5.994 4.518,5.274 L4.518,4.644 L7.11,4.644 L7.11,3.492 L4.518,3.492 L4.518,0.018 L3.33,0.018 L3.33,3.492 L0.27,3.492 L0.27,4.644 L3.168,4.644 C2.556,7.182 1.242,10.116 3.55271368e-15,11.718 C0.216,11.988 0.522,12.42 0.666,12.78 C1.656,11.502 2.61,9.432 3.33,7.344 L3.33,16.398 L4.518,16.398 L4.518,6.84 C5.202,7.848 6.102,9.18 6.48,9.846 L7.2,8.73 Z M14.418,15.102 C14.31,15.102 14.202,15.066 14.112,14.994 C14.022,14.904 13.986,14.562 13.986,13.932 L13.986,1.026 L8.154,1.026 L8.154,6.768 C8.154,9.558 7.92,13.14 5.472,15.642 C5.76,15.822 6.228,16.218 6.408,16.452 C8.982,13.788 9.36,9.738 9.36,6.786 L9.36,2.16 L12.816,2.16 L12.816,13.788 C12.816,15.336 12.906,15.66 13.176,15.876 C13.446,16.11 13.824,16.2 14.148,16.2 L15.012,16.2 C15.354,16.2 15.66,16.146 15.912,15.966 C16.146,15.768 16.29,15.516 16.362,14.994 C16.452,14.562 16.506,13.212 16.506,12.186 C16.182,12.096 15.822,11.916 15.57,11.682 C15.57,12.906 15.534,13.842 15.516,14.274 C15.462,14.688 15.426,14.868 15.318,14.958 C15.228,15.066 15.102,15.102 14.958,15.102 L14.418,15.102 Z" id="形状"></path>
            <path d="M21.996,0 L20.844,0 L20.844,3.474 L18.27,3.474 L18.27,4.608 L20.664,4.608 C20.106,7.128 18.954,10.044 17.802,11.556 C18.036,11.844 18.324,12.348 18.468,12.69 C19.35,11.43 20.214,9.306 20.844,7.146 L20.844,16.38 L21.996,16.38 L21.996,6.84 C22.518,7.74 23.148,8.856 23.4,9.432 L24.12,8.55 C23.814,8.046 22.5,6.066 21.996,5.4 L21.996,4.608 L24.318,4.608 L24.318,3.474 L21.996,3.474 L21.996,0 Z M31.932,6.174 L31.932,9.9 L26.28,9.9 L26.28,6.174 L31.932,6.174 Z M26.28,14.526 L26.28,11.016 L33.066,11.016 L33.066,5.058 L26.28,5.058 L26.28,2.142 L33.984,2.142 L33.984,0.972 L25.11,0.972 L25.11,15.696 L34.344,15.696 L34.344,14.526 L26.28,14.526 Z" id="形状"></path>
        </g>
    </g>
</svg>