<?xml version="1.0" encoding="UTF-8"?>
<svg width="85px" height="120px" viewBox="0 0 85 120" version="1.1" xmlns="http://www.w3.org/2000/svg" xmlns:xlink="http://www.w3.org/1999/xlink">
    <title>taps-发射机</title>
    <defs>
        <linearGradient x1="95.6915389%" y1="71.1541908%" x2="23.1991873%" y2="8.99600888%" id="linearGradient-1">
            <stop stop-color="#061F51" offset="0%"></stop>
            <stop stop-color="#284AAC" offset="100%"></stop>
        </linearGradient>
        <circle id="path-2" cx="42" cy="41" r="34"></circle>
        <filter x="-12.5%" y="-12.5%" width="125.0%" height="125.0%" filterUnits="objectBoundingBox" id="filter-3">
            <feMorphology radius="3" operator="dilate" in="SourceAlpha" result="shadowSpreadOuter1"></feMorphology>
            <feOffset dx="0" dy="0" in="shadowSpreadOuter1" result="shadowOffsetOuter1"></feOffset>
            <feMorphology radius="3" operator="erode" in="SourceAlpha" result="shadowInner"></feMorphology>
            <feOffset dx="0" dy="0" in="shadowInner" result="shadowInner"></feOffset>
            <feComposite in="shadowOffsetOuter1" in2="shadowInner" operator="out" result="shadowOffsetOuter1"></feComposite>
            <feGaussianBlur stdDeviation="1.5" in="shadowOffsetOuter1" result="shadowBlurOuter1"></feGaussianBlur>
            <feColorMatrix values="0 0 0 0 0.300315415   0 0 0 0 0.483258009   0 0 0 0 0.913496377  0 0 0 1 0" type="matrix" in="shadowBlurOuter1"></feColorMatrix>
        </filter>
        <filter x="-12.5%" y="-12.5%" width="125.0%" height="125.0%" filterUnits="objectBoundingBox" id="filter-4">
            <feMorphology radius="2" operator="erode" in="SourceAlpha" result="shadowSpreadInner1"></feMorphology>
            <feGaussianBlur stdDeviation="1.5" in="shadowSpreadInner1" result="shadowBlurInner1"></feGaussianBlur>
            <feOffset dx="0" dy="0" in="shadowBlurInner1" result="shadowOffsetInner1"></feOffset>
            <feComposite in="shadowOffsetInner1" in2="SourceAlpha" operator="arithmetic" k2="-1" k3="1" result="shadowInnerInner1"></feComposite>
            <feColorMatrix values="0 0 0 0 0.301960784   0 0 0 0 0.482352941   0 0 0 0 0.91372549  0 0 0 1 0" type="matrix" in="shadowInnerInner1"></feColorMatrix>
        </filter>
        <linearGradient x1="42.1542433%" y1="41.1249283%" x2="23.1991873%" y2="8.99600888%" id="linearGradient-5">
            <stop stop-color="#B1CBFF" stop-opacity="0" offset="0%"></stop>
            <stop stop-color="#F0F8FF" offset="100%"></stop>
        </linearGradient>
        <linearGradient x1="50%" y1="0%" x2="50%" y2="100%" id="linearGradient-6">
            <stop stop-color="#D6EAFF" offset="0%"></stop>
            <stop stop-color="#538DE7" offset="100%"></stop>
        </linearGradient>
    </defs>
    <g id="taps-发射机" stroke="none" stroke-width="1" fill="none" fill-rule="evenodd">
        <g id="编组" transform="translate(1, 1)">
            <circle id="椭圆形" stroke="#5372CB" stroke-linecap="square" cx="41.5" cy="41.5" r="26.5"></circle>
            <circle id="椭圆形" stroke="url(#linearGradient-1)" stroke-width="2" stroke-linecap="square" cx="41.5" cy="41.5" r="41.5"></circle>
            <g id="椭圆形" stroke-linecap="square">
                <use fill="black" fill-opacity="1" filter="url(#filter-3)" xlink:href="#path-2"></use>
                <use fill="black" fill-opacity="1" filter="url(#filter-4)" xlink:href="#path-2"></use>
                <use stroke="#6B9DEA" stroke-width="4" xlink:href="#path-2"></use>
            </g>
            <circle id="椭圆形" stroke="url(#linearGradient-5)" stroke-linecap="square" cx="42" cy="41" r="36"></circle>
            <path d="M34.305847,45.9998727 C35.2414778,45.9998727 35.9999565,46.7583497 35.9999565,47.6939784 L35.9999565,51.4351284 C35.9999565,51.7470047 36.2527827,51.9998303 36.5646596,51.9998303 L45.0355817,51.9989843 C45.2786134,50.3033204 46.7371503,48.9999081 48.5000735,48.9999081 C50.4330331,48.9999081 52.0000919,50.5669669 52.0000919,52.4999265 C52.0000919,54.4329412 50.4330331,56 48.5000735,56 C47.0963649,56 45.8856363,55.1736407 45.3278325,53.9808668 L45.259198,53.9934003 L45.1529453,54 L35.6941675,54 C35.2448617,54 34.8139584,53.8215144 34.4962512,53.5038079 C34.1785441,53.1861015 34.000058,52.7551991 34.000058,52.3058943 L34.000058,48.5647443 C34.000058,48.4149761 33.9405627,48.2713419 33.8346603,48.1654398 C33.7287579,48.0595376 33.5851235,48.0000424 33.4353549,48.0000424 L27.8470547,48.0000424 C27.3792393,48.0000424 27,47.6208039 27,47.1529896 L27,46.8469256 C27,46.6222732 27.089243,46.406822 27.2480966,46.2479688 C27.4069502,46.0891155 27.6224018,45.9998727 27.8470547,45.9998727 Z M48.5000735,50.7499172 C47.5374043,50.7553489 46.7598606,51.5372697 46.7598606,52.499954 C46.7598606,53.4626384 47.5374043,54.2445592 48.5000735,54.2499909 C49.127632,54.2534861 49.7090331,53.9207088 50.0238337,53.3778068 C50.3386343,52.8349048 50.3386343,52.1650033 50.0238337,51.6221013 C49.7090331,51.0791992 49.127632,50.746422 48.5000735,50.7499172 Z M30.2363181,50.0000839 C30.7041376,50.0000839 31.0833803,50.3793266 31.0833803,50.8471461 L31.0833803,51.1529378 C31.0833803,51.6207573 30.7041376,52 30.2363181,52 L27.8470622,52 C27.3792427,52 27,51.6207573 27,51.1529378 L27,50.8471461 C27,50.6224913 27.0892438,50.4070377 27.2480988,50.2481827 C27.4069538,50.0893277 27.6224073,50.0000839 27.8470622,50.0000839 L30.2363181,50.0000839 Z M44.1530097,47.0000719 C44.6208293,47.0000719 45.0000719,47.3793146 45.0000719,47.8471341 L45.0000719,48.1529258 C45.0000719,48.6207453 44.6208293,48.999988 44.1530097,48.999988 L39.8471102,48.999988 C39.3792906,48.999988 39.000048,48.6207453 39.000048,48.1529258 L39.000048,47.8471341 C39.000048,47.3793146 39.3792906,47.0000719 39.8471102,47.0000719 Z M52.0000919,35 C54.7614649,35 57,37.2385351 57,39.9999081 C57,42.7612811 54.7614649,44.9998162 52.0000919,44.9998162 C49.9500166,44.9998162 48.1881165,43.7659917 47.4164525,42.0004037 L27.8470622,42.0001439 C27.3792427,42.0001439 27,41.6209012 27,41.1530817 L27,39.8471941 C27,39.6225392 27.0892438,39.4070856 27.2480988,39.2482307 C27.4069538,39.0893757 27.6224073,39.0001319 27.8470622,39.0001319 L47.1000944,39.0004476 C47.5631548,36.7179896 49.5809944,35 52.0000919,35 Z M48.5000735,26 C50.4330331,26 52.0000919,27.5670588 52.0000919,29.5000735 C52.0000919,31.4330331 50.4330331,33.0000919 48.5000735,33.0000919 C46.7371503,33.0000919 45.2786134,31.6966796 45.0355817,30.0010157 L42.5646306,30.0001697 C42.2527537,30.0001697 41.9999274,30.2529953 41.9999274,30.5648716 L41.9999274,33.3059368 C41.9999274,34.2415655 41.2414488,35.0000424 40.305818,35.0000424 L27.8470547,35.0000424 C27.3792393,35.0000424 27,34.6208039 27,34.1529896 L27,33.8472013 C27,33.3793869 27.3792393,33.0001485 27.8470547,33.0001485 L39.4353259,33.0001485 C39.7472028,33.0001485 40.000029,32.7473228 40.000029,32.4354466 L40.000029,29.6941057 C40.000029,28.7584769 40.7585077,28 41.6941385,28 L45.1529453,28 C45.2132744,28 45.2721305,28.0063069 45.3288901,28.0182974 C45.8856363,26.8263593 47.0963649,26 48.5000735,26 Z M48.5000735,27.7500091 C47.5374043,27.7554408 46.7598606,28.5373616 46.7598606,29.500046 C46.7598606,30.4627303 47.5374043,31.2446511 48.5000735,31.2500828 C49.127632,31.253578 49.7090331,30.9208008 50.0238337,30.3778987 C50.3386343,29.8349967 50.3386343,29.1650952 50.0238337,28.6221932 C49.7090331,28.0792912 49.127632,27.7465139 48.5000735,27.7500091 Z M36.1530697,29 C36.6208892,29 37.0001319,29.3792427 37.0001319,29.8470622 L37.0001319,30.1528539 C37.0001319,30.6206734 36.6208892,30.9999161 36.1530697,30.9999161 L27.8470622,30.9999161 C27.3792427,30.9999161 27,30.6206734 27,30.1528539 L27,29.8470622 C27,29.3792427 27.3792427,29 27.8470622,29 Z" id="形状结合" fill="url(#linearGradient-6)" fill-rule="nonzero"></path>
        </g>
        <g id="发射机" transform="translate(17.148, 92.898)" fill="#FFFFFF" fill-rule="nonzero">
            <path d="M14.724,2.934 C14.22,2.268 13.176,1.152 12.384,0.36 L11.484,0.918 C12.258,1.764 13.284,2.898 13.788,3.6 L14.724,2.934 Z M12.78,8.478 C12.132,10.026 11.124,11.34 9.918,12.402 C8.64,11.322 7.632,9.99 6.93,8.478 L12.78,8.478 Z M13.572,7.272 L13.356,7.326 L7.164,7.326 C7.416,6.696 7.632,6.03 7.83,5.346 L16.002,5.346 L16.02,4.176 L8.154,4.176 C8.46,2.916 8.694,1.602 8.892,0.216 L7.56,0 C7.398,1.476 7.146,2.862 6.804,4.176 L3.42,4.176 C3.906,3.222 4.392,1.998 4.752,0.828 L3.456,0.594 C3.15,1.962 2.484,3.42 2.268,3.78 C2.07,4.158 1.872,4.428 1.638,4.482 C1.782,4.77 1.962,5.364 2.052,5.634 C2.214,5.436 2.79,5.346 3.942,5.346 L6.48,5.346 C5.31,9.126 3.294,12.114 0,14.148 C0.306,14.346 0.72,14.796 0.882,15.048 C3.24,13.572 4.95,11.682 6.21,9.396 C6.948,10.818 7.884,12.06 9.018,13.104 C7.434,14.22 5.616,15.03 3.726,15.498 C3.942,15.75 4.23,16.2 4.356,16.506 C6.372,15.948 8.298,15.084 9.936,13.878 C11.574,15.102 13.554,15.984 15.876,16.524 C16.038,16.2 16.344,15.714 16.614,15.462 C14.382,15.03 12.456,14.22 10.872,13.122 C12.402,11.736 13.626,9.936 14.382,7.668 L13.572,7.272 Z" id="形状"></path>
            <path d="M20.736,8.046 L24.48,8.046 L24.48,9.666 L20.736,9.666 L20.736,8.046 Z M24.48,3.06 L24.48,4.608 L20.736,4.608 L20.736,3.06 L24.48,3.06 Z M24.48,7.128 L20.736,7.128 L20.736,5.526 L24.48,5.526 L24.48,7.128 Z M25.596,2.088 L22.626,2.088 C22.878,1.548 23.13,0.864 23.382,0.252 L22.176,0.054 C22.05,0.648 21.78,1.476 21.51,2.088 L19.638,2.088 L19.638,9.666 L18.36,9.666 L18.36,10.728 L23.112,10.728 C21.834,12.402 19.962,13.842 18.018,14.76 C18.252,14.958 18.648,15.39 18.81,15.624 C20.916,14.49 23.022,12.78 24.426,10.728 L24.48,10.728 L24.48,15.066 C24.48,15.336 24.39,15.408 24.12,15.426 C23.85,15.444 22.968,15.462 22.014,15.426 C22.158,15.714 22.338,16.182 22.392,16.47 C23.67,16.47 24.48,16.452 24.966,16.272 C25.416,16.092 25.596,15.75 25.596,15.066 L25.596,2.088 Z M34.524,4.248 L32.526,4.248 L32.526,0.126 L31.392,0.126 L31.392,4.248 L26.298,4.248 L26.298,5.4 L31.392,5.4 L31.392,14.922 C31.392,15.246 31.266,15.318 30.96,15.336 C30.672,15.354 29.682,15.372 28.566,15.318 C28.746,15.66 28.926,16.146 28.98,16.47 C30.438,16.47 31.302,16.434 31.806,16.236 C32.31,16.038 32.526,15.714 32.526,14.922 L32.526,5.4 L34.524,5.4 L34.524,4.248 Z M30.132,11.268 C29.772,10.098 28.89,8.388 27.936,7.092 L27,7.524 C27.9,8.802 28.782,10.566 29.124,11.718 L30.132,11.268 Z" id="形状"></path>
            <path d="M43.272,8.784 C42.876,8.244 41.202,6.048 40.59,5.328 L40.59,4.698 L43.182,4.698 L43.182,3.546 L40.59,3.546 L40.59,0.072 L39.402,0.072 L39.402,3.546 L36.342,3.546 L36.342,4.698 L39.24,4.698 C38.628,7.236 37.314,10.17 36.072,11.772 C36.288,12.042 36.594,12.474 36.738,12.834 C37.728,11.556 38.682,9.486 39.402,7.398 L39.402,16.452 L40.59,16.452 L40.59,6.894 C41.274,7.902 42.174,9.234 42.552,9.9 L43.272,8.784 Z M50.49,15.156 C50.382,15.156 50.274,15.12 50.184,15.048 C50.094,14.958 50.058,14.616 50.058,13.986 L50.058,1.08 L44.226,1.08 L44.226,6.822 C44.226,9.612 43.992,13.194 41.544,15.696 C41.832,15.876 42.3,16.272 42.48,16.506 C45.054,13.842 45.432,9.792 45.432,6.84 L45.432,2.214 L48.888,2.214 L48.888,13.842 C48.888,15.39 48.978,15.714 49.248,15.93 C49.518,16.164 49.896,16.254 50.22,16.254 L51.084,16.254 C51.426,16.254 51.732,16.2 51.984,16.02 C52.218,15.822 52.362,15.57 52.434,15.048 C52.524,14.616 52.578,13.266 52.578,12.24 C52.254,12.15 51.894,11.97 51.642,11.736 C51.642,12.96 51.606,13.896 51.588,14.328 C51.534,14.742 51.498,14.922 51.39,15.012 C51.3,15.12 51.174,15.156 51.03,15.156 L50.49,15.156 Z" id="形状"></path>
        </g>
    </g>
</svg>