<?xml version="1.0" encoding="UTF-8"?>
<svg width="85px" height="120px" viewBox="0 0 85 120" version="1.1" xmlns="http://www.w3.org/2000/svg" xmlns:xlink="http://www.w3.org/1999/xlink">
    <title>taps-发射机-s</title>
    <defs>
        <linearGradient x1="95.6915389%" y1="71.1541908%" x2="23.1991873%" y2="8.99600888%" id="linearGradient-1">
            <stop stop-color="#061951" offset="0%"></stop>
            <stop stop-color="#748011" offset="100%"></stop>
        </linearGradient>
        <radialGradient cx="50%" cy="50%" fx="50%" fy="50%" r="50%" id="radialGradient-2">
            <stop stop-color="#F4FFC5" stop-opacity="0" offset="0%"></stop>
            <stop stop-color="#DEFF71" stop-opacity="0.3" offset="100%"></stop>
        </radialGradient>
        <circle id="path-3" cx="42" cy="41" r="34"></circle>
        <filter x="-14.0%" y="-14.0%" width="127.9%" height="127.9%" filterUnits="objectBoundingBox" id="filter-4">
            <feMorphology radius="3.5" operator="dilate" in="SourceAlpha" result="shadowSpreadOuter1"></feMorphology>
            <feOffset dx="0" dy="0" in="shadowSpreadOuter1" result="shadowOffsetOuter1"></feOffset>
            <feGaussianBlur stdDeviation="1.5" in="shadowOffsetOuter1" result="shadowBlurOuter1"></feGaussianBlur>
            <feComposite in="shadowBlurOuter1" in2="SourceAlpha" operator="out" result="shadowBlurOuter1"></feComposite>
            <feColorMatrix values="0 0 0 0 0.901960784   0 0 0 0 1   0 0 0 0 0.576470588  0 0 0 1 0" type="matrix" in="shadowBlurOuter1"></feColorMatrix>
        </filter>
        <filter x="-14.0%" y="-14.0%" width="127.9%" height="127.9%" filterUnits="objectBoundingBox" id="filter-5">
            <feMorphology radius="3" operator="erode" in="SourceAlpha" result="shadowSpreadInner1"></feMorphology>
            <feGaussianBlur stdDeviation="1.5" in="shadowSpreadInner1" result="shadowBlurInner1"></feGaussianBlur>
            <feOffset dx="0" dy="0" in="shadowBlurInner1" result="shadowOffsetInner1"></feOffset>
            <feComposite in="shadowOffsetInner1" in2="SourceAlpha" operator="arithmetic" k2="-1" k3="1" result="shadowInnerInner1"></feComposite>
            <feColorMatrix values="0 0 0 0 0.901960784   0 0 0 0 1   0 0 0 0 0.576470588  0 0 0 1 0" type="matrix" in="shadowInnerInner1"></feColorMatrix>
        </filter>
        <linearGradient x1="42.1542433%" y1="41.1249283%" x2="23.1991873%" y2="8.99600888%" id="linearGradient-6">
            <stop stop-color="#F0FFB1" stop-opacity="0" offset="0%"></stop>
            <stop stop-color="#FCFFF0" offset="100%"></stop>
        </linearGradient>
        <linearGradient x1="50%" y1="0%" x2="50%" y2="98.3528191%" id="linearGradient-7">
            <stop stop-color="#FFFFFF" offset="0%"></stop>
            <stop stop-color="#DFFF76" offset="100%"></stop>
        </linearGradient>
        <linearGradient x1="-6.45317133e-14%" y1="0%" x2="100%" y2="0%" id="linearGradient-8">
            <stop stop-color="#F6FFD7" stop-opacity="0" offset="0%"></stop>
            <stop stop-color="#DCFF6E" offset="49.5274257%"></stop>
            <stop stop-color="#EEFF98" stop-opacity="0" offset="100%"></stop>
        </linearGradient>
        <radialGradient cx="50%" cy="50%" fx="50%" fy="50%" r="50%" gradientTransform="translate(0.5, 0.5), scale(0.0833, 1), rotate(90), scale(1, 11.8221), translate(-0.5, -0.5)" id="radialGradient-9">
            <stop stop-color="#F4FFB3" offset="0%"></stop>
            <stop stop-color="#F0FF7B" stop-opacity="0" offset="100%"></stop>
        </radialGradient>
    </defs>
    <g id="taps-发射机-s" stroke="none" stroke-width="1" fill="none" fill-rule="evenodd">
        <g id="编组" transform="translate(1, 1)">
            <circle id="椭圆形" stroke="#E7FF96" stroke-linecap="square" cx="41.5" cy="41.5" r="26.5"></circle>
            <circle id="椭圆形" stroke="url(#linearGradient-1)" stroke-width="2" stroke-linecap="square" cx="41.5" cy="41.5" r="41.5"></circle>
            <g id="椭圆形" stroke-linecap="square">
                <use fill="black" fill-opacity="1" filter="url(#filter-4)" xlink:href="#path-3"></use>
                <use fill="url(#radialGradient-2)" fill-rule="evenodd" xlink:href="#path-3"></use>
                <use fill="black" fill-opacity="1" filter="url(#filter-5)" xlink:href="#path-3"></use>
                <use stroke="#DDFF6E" stroke-width="4" xlink:href="#path-3"></use>
            </g>
            <circle id="椭圆形" stroke="url(#linearGradient-6)" stroke-linecap="square" cx="42" cy="41" r="36"></circle>
            <path d="M34.305847,45.9998727 C35.2414778,45.9998727 35.9999565,46.7583497 35.9999565,47.6939784 L35.9999565,51.4351284 C35.9999565,51.7470047 36.2527827,51.9998303 36.5646596,51.9998303 L45.0355817,51.9989843 C45.2786134,50.3033204 46.7371503,48.9999081 48.5000735,48.9999081 C50.4330331,48.9999081 52.0000919,50.5669669 52.0000919,52.4999265 C52.0000919,54.4329412 50.4330331,56 48.5000735,56 C47.0963649,56 45.8856363,55.1736407 45.3278325,53.9808668 L45.259198,53.9934003 L45.1529453,54 L35.6941675,54 C35.2448617,54 34.8139584,53.8215144 34.4962512,53.5038079 C34.1785441,53.1861015 34.000058,52.7551991 34.000058,52.3058943 L34.000058,48.5647443 C34.000058,48.4149761 33.9405627,48.2713419 33.8346603,48.1654398 C33.7287579,48.0595376 33.5851235,48.0000424 33.4353549,48.0000424 L27.8470547,48.0000424 C27.3792393,48.0000424 27,47.6208039 27,47.1529896 L27,46.8469256 C27,46.6222732 27.089243,46.406822 27.2480966,46.2479688 C27.4069502,46.0891155 27.6224018,45.9998727 27.8470547,45.9998727 Z M48.5000735,50.7499172 C47.5374043,50.7553489 46.7598606,51.5372697 46.7598606,52.499954 C46.7598606,53.4626384 47.5374043,54.2445592 48.5000735,54.2499909 C49.127632,54.2534861 49.7090331,53.9207088 50.0238337,53.3778068 C50.3386343,52.8349048 50.3386343,52.1650033 50.0238337,51.6221013 C49.7090331,51.0791992 49.127632,50.746422 48.5000735,50.7499172 Z M30.2363181,50.0000839 C30.7041376,50.0000839 31.0833803,50.3793266 31.0833803,50.8471461 L31.0833803,51.1529378 C31.0833803,51.6207573 30.7041376,52 30.2363181,52 L27.8470622,52 C27.3792427,52 27,51.6207573 27,51.1529378 L27,50.8471461 C27,50.6224913 27.0892438,50.4070377 27.2480988,50.2481827 C27.4069538,50.0893277 27.6224073,50.0000839 27.8470622,50.0000839 L30.2363181,50.0000839 Z M44.1530097,47.0000719 C44.6208293,47.0000719 45.0000719,47.3793146 45.0000719,47.8471341 L45.0000719,48.1529258 C45.0000719,48.6207453 44.6208293,48.999988 44.1530097,48.999988 L39.8471102,48.999988 C39.3792906,48.999988 39.000048,48.6207453 39.000048,48.1529258 L39.000048,47.8471341 C39.000048,47.3793146 39.3792906,47.0000719 39.8471102,47.0000719 Z M52.0000919,35 C54.7614649,35 57,37.2385351 57,39.9999081 C57,42.7612811 54.7614649,44.9998162 52.0000919,44.9998162 C49.9500166,44.9998162 48.1881165,43.7659917 47.4164525,42.0004037 L27.8470622,42.0001439 C27.3792427,42.0001439 27,41.6209012 27,41.1530817 L27,39.8471941 C27,39.6225392 27.0892438,39.4070856 27.2480988,39.2482307 C27.4069538,39.0893757 27.6224073,39.0001319 27.8470622,39.0001319 L47.1000944,39.0004476 C47.5631548,36.7179896 49.5809944,35 52.0000919,35 Z M48.5000735,26 C50.4330331,26 52.0000919,27.5670588 52.0000919,29.5000735 C52.0000919,31.4330331 50.4330331,33.0000919 48.5000735,33.0000919 C46.7371503,33.0000919 45.2786134,31.6966796 45.0355817,30.0010157 L42.5646306,30.0001697 C42.2527537,30.0001697 41.9999274,30.2529953 41.9999274,30.5648716 L41.9999274,33.3059368 C41.9999274,34.2415655 41.2414488,35.0000424 40.305818,35.0000424 L27.8470547,35.0000424 C27.3792393,35.0000424 27,34.6208039 27,34.1529896 L27,33.8472013 C27,33.3793869 27.3792393,33.0001485 27.8470547,33.0001485 L39.4353259,33.0001485 C39.7472028,33.0001485 40.000029,32.7473228 40.000029,32.4354466 L40.000029,29.6941057 C40.000029,28.7584769 40.7585077,28 41.6941385,28 L45.1529453,28 C45.2132744,28 45.2721305,28.0063069 45.3288901,28.0182974 C45.8856363,26.8263593 47.0963649,26 48.5000735,26 Z M48.5000735,27.7500091 C47.5374043,27.7554408 46.7598606,28.5373616 46.7598606,29.500046 C46.7598606,30.4627303 47.5374043,31.2446511 48.5000735,31.2500828 C49.127632,31.253578 49.7090331,30.9208008 50.0238337,30.3778987 C50.3386343,29.8349967 50.3386343,29.1650952 50.0238337,28.6221932 C49.7090331,28.0792912 49.127632,27.7465139 48.5000735,27.7500091 Z M36.1530697,29 C36.6208892,29 37.0001319,29.3792427 37.0001319,29.8470622 L37.0001319,30.1528539 C37.0001319,30.6206734 36.6208892,30.9999161 36.1530697,30.9999161 L27.8470622,30.9999161 C27.3792427,30.9999161 27,30.6206734 27,30.1528539 L27,29.8470622 C27,29.3792427 27.3792427,29 27.8470622,29 Z" id="形状结合" fill="url(#linearGradient-7)"></path>
        </g>
        <g id="发射机" transform="translate(16.896, 92.628)" fill="#E6FF93" fill-rule="nonzero">
            <path d="M15.426,2.664 C14.94,1.998 13.968,0.954 13.266,0.198 L11.61,1.188 C12.312,1.998 13.248,3.114 13.698,3.78 L15.426,2.664 Z M12.42,9.522 C11.862,10.512 11.142,11.394 10.26,12.15 C9.36,11.394 8.604,10.512 7.992,9.522 L12.42,9.522 Z M13.968,7.362 L13.572,7.452 L8.316,7.452 C8.496,6.966 8.658,6.498 8.82,5.976 L16.56,5.976 L16.56,3.924 L9.342,3.924 C9.576,2.808 9.774,1.62 9.936,0.396 L7.542,0 C7.38,1.386 7.146,2.7 6.858,3.924 L4.374,3.924 C4.86,3.006 5.328,1.908 5.634,0.882 L3.366,0.522 C3.024,1.926 2.358,3.33 2.124,3.708 C1.89,4.104 1.62,4.356 1.35,4.446 C1.584,4.968 1.926,5.94 2.052,6.39 C2.214,6.12 2.97,5.976 3.942,5.976 L6.282,5.976 C5.112,9.45 3.186,12.132 2.84217094e-14,13.842 C0.522,14.22 1.278,15.102 1.566,15.57 C3.744,14.346 5.382,12.798 6.606,10.908 C7.164,11.826 7.794,12.636 8.55,13.356 C7.164,14.148 5.598,14.724 3.906,15.084 C4.302,15.57 4.788,16.398 5.022,16.974 C6.966,16.47 8.748,15.768 10.296,14.778 C11.826,15.786 13.644,16.524 15.84,16.974 C16.128,16.38 16.704,15.498 17.172,15.03 C15.21,14.706 13.536,14.148 12.114,13.392 C13.59,12.042 14.742,10.296 15.462,8.064 L13.968,7.362 Z" id="形状"></path>
            <path d="M21.546,8.586 L24.156,8.586 L24.156,9.504 L21.546,9.504 L21.546,8.586 Z M24.156,4.68 L21.546,4.68 L21.546,3.744 L24.156,3.744 L24.156,4.68 Z M24.156,7.074 L21.546,7.074 L21.546,6.192 L24.156,6.192 L24.156,7.074 Z M26.118,2.124 L23.49,2.124 C23.706,1.602 23.976,0.99 24.246,0.342 L22.086,0.126 C21.978,0.72 21.744,1.476 21.528,2.124 L19.638,2.124 L19.638,9.504 L18.378,9.504 L18.378,11.376 L22.032,11.376 C20.97,12.78 19.548,13.968 17.982,14.724 C18.378,15.084 19.044,15.858 19.314,16.254 C21.168,15.174 22.914,13.536 24.156,11.574 L24.156,14.832 C24.156,15.084 24.066,15.174 23.814,15.174 C23.562,15.192 22.788,15.192 22.068,15.156 C22.32,15.624 22.608,16.452 22.698,16.956 C23.904,16.956 24.75,16.92 25.344,16.614 C25.938,16.308 26.118,15.804 26.118,14.868 L26.118,2.124 Z M34.938,3.978 L33.174,3.978 L33.174,0.252 L31.158,0.252 L31.158,3.978 L26.712,3.978 L26.712,6.03 L31.158,6.03 L31.158,14.49 C31.158,14.814 31.032,14.886 30.708,14.904 C30.384,14.922 29.322,14.922 28.296,14.868 C28.566,15.444 28.872,16.326 28.962,16.902 C30.492,16.902 31.572,16.83 32.238,16.506 C32.94,16.182 33.174,15.642 33.174,14.49 L33.174,6.03 L34.938,6.03 L34.938,3.978 Z M30.564,11.358 C30.24,10.188 29.394,8.46 28.512,7.146 L26.856,7.83 C27.684,9.162 28.494,10.962 28.782,12.15 L30.564,11.358 Z" id="形状"></path>
            <path d="M43.758,8.928 C43.416,8.478 41.85,6.606 41.238,5.958 L41.238,5.526 L43.308,5.526 L43.308,3.492 L41.238,3.492 L41.238,0.144 L39.114,0.144 L39.114,3.492 L36.45,3.492 L36.45,5.526 L38.898,5.526 C38.34,7.704 37.26,10.206 36.126,11.772 C36.45,12.294 36.972,13.104 37.188,13.752 C37.908,12.798 38.556,11.466 39.114,10.044 L39.114,16.938 L41.238,16.938 L41.238,8.64 C41.778,9.45 42.336,10.368 42.66,10.98 L43.758,8.928 Z M50.958,14.724 C50.886,14.724 50.832,14.688 50.778,14.616 C50.724,14.526 50.724,14.274 50.724,13.824 L50.724,1.152 L44.082,1.152 L44.082,6.948 C44.082,9.648 43.884,13.176 41.508,15.534 C41.994,15.804 42.894,16.56 43.218,16.974 C45.846,14.364 46.26,10.008 46.26,6.966 L46.26,3.186 L48.582,3.186 L48.582,13.878 C48.582,15.426 48.726,15.84 49.05,16.2 C49.374,16.524 49.878,16.686 50.292,16.686 L51.264,16.686 C51.678,16.686 52.092,16.596 52.38,16.362 C52.668,16.128 52.848,15.786 52.938,15.264 C53.064,14.724 53.136,13.464 53.154,12.492 C52.614,12.312 52.02,11.988 51.606,11.646 C51.606,12.708 51.57,13.59 51.552,13.95 C51.534,14.346 51.498,14.526 51.426,14.616 C51.39,14.688 51.3,14.724 51.21,14.724 L50.958,14.724 Z" id="形状"></path>
        </g>
        <line x1="0.5" y1="116.478261" x2="83.5" y2="116.478261" id="直线-2备份" stroke="url(#linearGradient-8)" stroke-linecap="square"></line>
        <rect id="矩形" fill="url(#radialGradient-9)" x="12" y="113.978261" width="60" height="5"></rect>
    </g>
</svg>