<?xml version="1.0" encoding="UTF-8"?>
<svg width="85px" height="120px" viewBox="0 0 85 120" version="1.1" xmlns="http://www.w3.org/2000/svg" xmlns:xlink="http://www.w3.org/1999/xlink">
    <title>taps-机柜-s</title>
    <defs>
        <linearGradient x1="95.6915389%" y1="71.1541908%" x2="23.1991873%" y2="8.99600888%" id="linearGradient-1">
            <stop stop-color="#061951" offset="0%"></stop>
            <stop stop-color="#748011" offset="100%"></stop>
        </linearGradient>
        <radialGradient cx="50%" cy="50%" fx="50%" fy="50%" r="50%" id="radialGradient-2">
            <stop stop-color="#F4FFC5" stop-opacity="0" offset="0%"></stop>
            <stop stop-color="#DEFF71" stop-opacity="0.3" offset="100%"></stop>
        </radialGradient>
        <circle id="path-3" cx="42" cy="41" r="34"></circle>
        <filter x="-14.0%" y="-14.0%" width="127.9%" height="127.9%" filterUnits="objectBoundingBox" id="filter-4">
            <feMorphology radius="3.5" operator="dilate" in="SourceAlpha" result="shadowSpreadOuter1"></feMorphology>
            <feOffset dx="0" dy="0" in="shadowSpreadOuter1" result="shadowOffsetOuter1"></feOffset>
            <feGaussianBlur stdDeviation="1.5" in="shadowOffsetOuter1" result="shadowBlurOuter1"></feGaussianBlur>
            <feComposite in="shadowBlurOuter1" in2="SourceAlpha" operator="out" result="shadowBlurOuter1"></feComposite>
            <feColorMatrix values="0 0 0 0 0.901960784   0 0 0 0 1   0 0 0 0 0.576470588  0 0 0 1 0" type="matrix" in="shadowBlurOuter1"></feColorMatrix>
        </filter>
        <filter x="-14.0%" y="-14.0%" width="127.9%" height="127.9%" filterUnits="objectBoundingBox" id="filter-5">
            <feMorphology radius="3" operator="erode" in="SourceAlpha" result="shadowSpreadInner1"></feMorphology>
            <feGaussianBlur stdDeviation="1.5" in="shadowSpreadInner1" result="shadowBlurInner1"></feGaussianBlur>
            <feOffset dx="0" dy="0" in="shadowBlurInner1" result="shadowOffsetInner1"></feOffset>
            <feComposite in="shadowOffsetInner1" in2="SourceAlpha" operator="arithmetic" k2="-1" k3="1" result="shadowInnerInner1"></feComposite>
            <feColorMatrix values="0 0 0 0 0.901960784   0 0 0 0 1   0 0 0 0 0.576470588  0 0 0 1 0" type="matrix" in="shadowInnerInner1"></feColorMatrix>
        </filter>
        <linearGradient x1="42.1542433%" y1="41.1249283%" x2="23.1991873%" y2="8.99600888%" id="linearGradient-6">
            <stop stop-color="#F0FFB1" stop-opacity="0" offset="0%"></stop>
            <stop stop-color="#FCFFF0" offset="100%"></stop>
        </linearGradient>
        <linearGradient x1="50%" y1="0%" x2="50%" y2="98.3528191%" id="linearGradient-7">
            <stop stop-color="#FFFFFF" offset="0%"></stop>
            <stop stop-color="#DFFF76" offset="100%"></stop>
        </linearGradient>
        <linearGradient x1="-6.45317133e-14%" y1="0%" x2="100%" y2="0%" id="linearGradient-8">
            <stop stop-color="#F6FFD7" stop-opacity="0" offset="0%"></stop>
            <stop stop-color="#DCFF6E" offset="49.5274257%"></stop>
            <stop stop-color="#EEFF98" stop-opacity="0" offset="100%"></stop>
        </linearGradient>
        <radialGradient cx="50%" cy="50%" fx="50%" fy="50%" r="50%" gradientTransform="translate(0.5, 0.5), scale(0.0833, 1), rotate(90), scale(1, 11.8221), translate(-0.5, -0.5)" id="radialGradient-9">
            <stop stop-color="#F4FFB3" offset="0%"></stop>
            <stop stop-color="#F0FF7B" stop-opacity="0" offset="100%"></stop>
        </radialGradient>
    </defs>
    <g id="taps-机柜-s" stroke="none" stroke-width="1" fill="none" fill-rule="evenodd">
        <g id="编组" transform="translate(1, 1)">
            <circle id="椭圆形" stroke="#E7FF96" stroke-linecap="square" cx="41.5" cy="41.5" r="26.5"></circle>
            <circle id="椭圆形" stroke="url(#linearGradient-1)" stroke-width="2" stroke-linecap="square" cx="41.5" cy="41.5" r="41.5"></circle>
            <g id="椭圆形" stroke-linecap="square">
                <use fill="black" fill-opacity="1" filter="url(#filter-4)" xlink:href="#path-3"></use>
                <use fill="url(#radialGradient-2)" fill-rule="evenodd" xlink:href="#path-3"></use>
                <use fill="black" fill-opacity="1" filter="url(#filter-5)" xlink:href="#path-3"></use>
                <use stroke="#DDFF6E" stroke-width="4" xlink:href="#path-3"></use>
            </g>
            <circle id="椭圆形" stroke="url(#linearGradient-6)" stroke-linecap="square" cx="42" cy="41" r="36"></circle>
            <path d="M31.8461527,54.125 L31.8461527,56 L30,56 L30,53 L30.0382848,53 C30.0280113,52.9548053 30.0227769,52.9084939 30.0226883,52.8620117 L30.0226883,26.7410059 C30.022716,26.33 30.4170046,26 30.9049275,26 L53.1219084,26 C53.6084184,26 54.0027347,26.3314941 54,26.7410059 L54,52.8620117 C53.9996539,52.9178633 53.9920167,52.9734048 53.9771931,53.0270117 L53.9771931,56 L52.153833,56 L52.153833,54.125 L31.8461527,54.125 Z M33,33 L41,33 L41,30 L33,30 L33,33 L33,33 Z M33,38 L41,38 L41,35 L33,35 L33,38 L33,38 Z M33,43 L41,43 L41,40 L33,40 L33,43 L33,43 Z M33,48 L41,48 L41,45 L33,45 L33,48 L33,48 Z M43,33 L51,33 L51,30 L43,30 L43,33 L43,33 Z M43,38 L51,38 L51,35 L43,35 L43,38 L43,38 Z M43,43 L51,43 L51,40 L43,40 L43,43 L43,43 Z M43,48 L51,48 L51,45 L43,45 L43,48 L43,48 Z" id="形状" fill="url(#linearGradient-7)"></path>
        </g>
        <g id="机柜" transform="translate(26.022, 92.736)" fill="#E6FF93" fill-rule="nonzero">
            <path d="M7.632,8.82 C7.29,8.37 5.724,6.498 5.112,5.85 L5.112,5.418 L7.182,5.418 L7.182,3.384 L5.112,3.384 L5.112,0.036 L2.988,0.036 L2.988,3.384 L0.324,3.384 L0.324,5.418 L2.772,5.418 C2.214,7.596 1.134,10.098 3.55271368e-15,11.664 C0.324,12.186 0.846,12.996 1.062,13.644 C1.782,12.69 2.43,11.358 2.988,9.936 L2.988,16.83 L5.112,16.83 L5.112,8.532 C5.652,9.342 6.21,10.26 6.534,10.872 L7.632,8.82 Z M14.832,14.616 C14.76,14.616 14.706,14.58 14.652,14.508 C14.598,14.418 14.598,14.166 14.598,13.716 L14.598,1.044 L7.956,1.044 L7.956,6.84 C7.956,9.54 7.758,13.068 5.382,15.426 C5.868,15.696 6.768,16.452 7.092,16.866 C9.72,14.256 10.134,9.9 10.134,6.858 L10.134,3.078 L12.456,3.078 L12.456,13.77 C12.456,15.318 12.6,15.732 12.924,16.092 C13.248,16.416 13.752,16.578 14.166,16.578 L15.138,16.578 C15.552,16.578 15.966,16.488 16.254,16.254 C16.542,16.02 16.722,15.678 16.812,15.156 C16.938,14.616 17.01,13.356 17.028,12.384 C16.488,12.204 15.894,11.88 15.48,11.538 C15.48,12.6 15.444,13.482 15.426,13.842 C15.408,14.238 15.372,14.418 15.3,14.508 C15.264,14.58 15.174,14.616 15.084,14.616 L14.832,14.616 Z" id="形状"></path>
            <path d="M22.572,5.346 L24.516,5.346 L24.516,3.366 L22.572,3.366 L22.572,0 L20.52,0 L20.52,3.366 L18.234,3.366 L18.234,5.346 L20.25,5.346 C19.782,7.524 18.846,10.062 17.802,11.466 C18.126,12.042 18.612,13.014 18.81,13.644 C19.458,12.654 20.034,11.178 20.52,9.594 L20.52,16.83 L22.572,16.83 L22.572,8.604 C22.95,9.342 23.31,10.098 23.526,10.602 L24.732,9.126 C24.444,8.658 23.148,6.768 22.572,6.03 L22.572,5.346 Z M31.662,6.966 L31.662,9.702 L27.234,9.702 L27.234,6.966 L31.662,6.966 Z M27.234,14.076 L27.234,11.7 L33.66,11.7 L33.66,4.968 L27.234,4.968 L27.234,2.88 L34.434,2.88 L34.434,0.792 L25.128,0.792 L25.128,16.164 L34.812,16.164 L34.812,14.076 L27.234,14.076 Z" id="形状"></path>
        </g>
        <line x1="0.5" y1="116.478261" x2="83.5" y2="116.478261" id="直线-2备份" stroke="url(#linearGradient-8)" stroke-linecap="square"></line>
        <rect id="矩形" fill="url(#radialGradient-9)" x="12" y="113.978261" width="60" height="5"></rect>
    </g>
</svg>